<?xml version="1.0" encoding="utf-8" standalone="no"?>
<!DOCTYPE svg PUBLIC "-//W3C//DTD SVG 1.1//EN"
  "http://www.w3.org/Graphics/SVG/1.1/DTD/svg11.dtd">
<svg xmlns:xlink="http://www.w3.org/1999/xlink" width="720pt" height="720pt" viewBox="0 0 720 720" xmlns="http://www.w3.org/2000/svg" version="1.1">
 <metadata>
  <rdf:RDF xmlns:dc="http://purl.org/dc/elements/1.1/" xmlns:cc="http://creativecommons.org/ns#" xmlns:rdf="http://www.w3.org/1999/02/22-rdf-syntax-ns#">
   <cc:Work>
    <dc:type rdf:resource="http://purl.org/dc/dcmitype/StillImage"/>
    <dc:date>2026-02-21T17:32:44.417420</dc:date>
    <dc:format>image/svg+xml</dc:format>
    <dc:creator>
     <cc:Agent>
      <dc:title>Matplotlib v3.10.0, https://matplotlib.org/</dc:title>
     </cc:Agent>
    </dc:creator>
   </cc:Work>
  </rdf:RDF>
 </metadata>
 <defs>
  <style type="text/css">*{stroke-linejoin: round; stroke-linecap: butt}</style>
 </defs>
 <g id="figure_1">
  <g id="patch_1">
   <path d="M 0 720 
L 720 720 
L 720 0 
L 0 0 
z
" style="fill: #ffffff"/>
  </g>
  <g id="axes_1">
   <g id="patch_2">
    <path d="M 90 338.4 
L 648 338.4 
L 648 86.4 
L 90 86.4 
z
" style="fill: #ffffff"/>
   </g>
   <g id="matplotlib.axis_1">
    <g id="xtick_1">
     <g id="line2d_1">
      <defs>
       <path id="mc4bbb63cb5" d="M 0 0 
L 0 3.5 
" style="stroke: #000000; stroke-width: 0.8"/>
      </defs>
      <g>
       <use xlink:href="#mc4bbb63cb5" x="171.727273" y="338.4" style="stroke: #000000; stroke-width: 0.8"/>
      </g>
     </g>
     <g id="text_1">
      <!-- 400 -->
      <g transform="translate(162.183523 352.998437) scale(0.1 -0.1)">
       <defs>
        <path id="DejaVuSans-34" d="M 2419 4116 
L 825 1625 
L 2419 1625 
L 2419 4116 
z
M 2253 4666 
L 3047 4666 
L 3047 1625 
L 3713 1625 
L 3713 1100 
L 3047 1100 
L 3047 0 
L 2419 0 
L 2419 1100 
L 313 1100 
L 313 1709 
L 2253 4666 
z
" transform="scale(0.015625)"/>
        <path id="DejaVuSans-30" d="M 2034 4250 
Q 1547 4250 1301 3770 
Q 1056 3291 1056 2328 
Q 1056 1369 1301 889 
Q 1547 409 2034 409 
Q 2525 409 2770 889 
Q 3016 1369 3016 2328 
Q 3016 3291 2770 3770 
Q 2525 4250 2034 4250 
z
M 2034 4750 
Q 2819 4750 3233 4129 
Q 3647 3509 3647 2328 
Q 3647 1150 3233 529 
Q 2819 -91 2034 -91 
Q 1250 -91 836 529 
Q 422 1150 422 2328 
Q 422 3509 836 4129 
Q 1250 4750 2034 4750 
z
" transform="scale(0.015625)"/>
       </defs>
       <use xlink:href="#DejaVuSans-34"/>
       <use xlink:href="#DejaVuSans-30" transform="translate(63.623047 0)"/>
       <use xlink:href="#DejaVuSans-30" transform="translate(127.246094 0)"/>
      </g>
     </g>
    </g>
    <g id="xtick_2">
     <g id="line2d_2">
      <g>
       <use xlink:href="#mc4bbb63cb5" x="284.454545" y="338.4" style="stroke: #000000; stroke-width: 0.8"/>
      </g>
     </g>
     <g id="text_2">
      <!-- 500 -->
      <g transform="translate(274.910795 352.998437) scale(0.1 -0.1)">
       <defs>
        <path id="DejaVuSans-35" d="M 691 4666 
L 3169 4666 
L 3169 4134 
L 1269 4134 
L 1269 2991 
Q 1406 3038 1543 3061 
Q 1681 3084 1819 3084 
Q 2600 3084 3056 2656 
Q 3513 2228 3513 1497 
Q 3513 744 3044 326 
Q 2575 -91 1722 -91 
Q 1428 -91 1123 -41 
Q 819 9 494 109 
L 494 744 
Q 775 591 1075 516 
Q 1375 441 1709 441 
Q 2250 441 2565 725 
Q 2881 1009 2881 1497 
Q 2881 1984 2565 2268 
Q 2250 2553 1709 2553 
Q 1456 2553 1204 2497 
Q 953 2441 691 2322 
L 691 4666 
z
" transform="scale(0.015625)"/>
       </defs>
       <use xlink:href="#DejaVuSans-35"/>
       <use xlink:href="#DejaVuSans-30" transform="translate(63.623047 0)"/>
       <use xlink:href="#DejaVuSans-30" transform="translate(127.246094 0)"/>
      </g>
     </g>
    </g>
    <g id="xtick_3">
     <g id="line2d_3">
      <g>
       <use xlink:href="#mc4bbb63cb5" x="397.181818" y="338.4" style="stroke: #000000; stroke-width: 0.8"/>
      </g>
     </g>
     <g id="text_3">
      <!-- 600 -->
      <g transform="translate(387.638068 352.998437) scale(0.1 -0.1)">
       <defs>
        <path id="DejaVuSans-36" d="M 2113 2584 
Q 1688 2584 1439 2293 
Q 1191 2003 1191 1497 
Q 1191 994 1439 701 
Q 1688 409 2113 409 
Q 2538 409 2786 701 
Q 3034 994 3034 1497 
Q 3034 2003 2786 2293 
Q 2538 2584 2113 2584 
z
M 3366 4563 
L 3366 3988 
Q 3128 4100 2886 4159 
Q 2644 4219 2406 4219 
Q 1781 4219 1451 3797 
Q 1122 3375 1075 2522 
Q 1259 2794 1537 2939 
Q 1816 3084 2150 3084 
Q 2853 3084 3261 2657 
Q 3669 2231 3669 1497 
Q 3669 778 3244 343 
Q 2819 -91 2113 -91 
Q 1303 -91 875 529 
Q 447 1150 447 2328 
Q 447 3434 972 4092 
Q 1497 4750 2381 4750 
Q 2619 4750 2861 4703 
Q 3103 4656 3366 4563 
z
" transform="scale(0.015625)"/>
       </defs>
       <use xlink:href="#DejaVuSans-36"/>
       <use xlink:href="#DejaVuSans-30" transform="translate(63.623047 0)"/>
       <use xlink:href="#DejaVuSans-30" transform="translate(127.246094 0)"/>
      </g>
     </g>
    </g>
    <g id="xtick_4">
     <g id="line2d_4">
      <g>
       <use xlink:href="#mc4bbb63cb5" x="509.909091" y="338.4" style="stroke: #000000; stroke-width: 0.8"/>
      </g>
     </g>
     <g id="text_4">
      <!-- 700 -->
      <g transform="translate(500.365341 352.998437) scale(0.1 -0.1)">
       <defs>
        <path id="DejaVuSans-37" d="M 525 4666 
L 3525 4666 
L 3525 4397 
L 1831 0 
L 1172 0 
L 2766 4134 
L 525 4134 
L 525 4666 
z
" transform="scale(0.015625)"/>
       </defs>
       <use xlink:href="#DejaVuSans-37"/>
       <use xlink:href="#DejaVuSans-30" transform="translate(63.623047 0)"/>
       <use xlink:href="#DejaVuSans-30" transform="translate(127.246094 0)"/>
      </g>
     </g>
    </g>
    <g id="xtick_5">
     <g id="line2d_5">
      <g>
       <use xlink:href="#mc4bbb63cb5" x="622.636364" y="338.4" style="stroke: #000000; stroke-width: 0.8"/>
      </g>
     </g>
     <g id="text_5">
      <!-- 800 -->
      <g transform="translate(613.092614 352.998437) scale(0.1 -0.1)">
       <defs>
        <path id="DejaVuSans-38" d="M 2034 2216 
Q 1584 2216 1326 1975 
Q 1069 1734 1069 1313 
Q 1069 891 1326 650 
Q 1584 409 2034 409 
Q 2484 409 2743 651 
Q 3003 894 3003 1313 
Q 3003 1734 2745 1975 
Q 2488 2216 2034 2216 
z
M 1403 2484 
Q 997 2584 770 2862 
Q 544 3141 544 3541 
Q 544 4100 942 4425 
Q 1341 4750 2034 4750 
Q 2731 4750 3128 4425 
Q 3525 4100 3525 3541 
Q 3525 3141 3298 2862 
Q 3072 2584 2669 2484 
Q 3125 2378 3379 2068 
Q 3634 1759 3634 1313 
Q 3634 634 3220 271 
Q 2806 -91 2034 -91 
Q 1263 -91 848 271 
Q 434 634 434 1313 
Q 434 1759 690 2068 
Q 947 2378 1403 2484 
z
M 1172 3481 
Q 1172 3119 1398 2916 
Q 1625 2713 2034 2713 
Q 2441 2713 2670 2916 
Q 2900 3119 2900 3481 
Q 2900 3844 2670 4047 
Q 2441 4250 2034 4250 
Q 1625 4250 1398 4047 
Q 1172 3844 1172 3481 
z
" transform="scale(0.015625)"/>
       </defs>
       <use xlink:href="#DejaVuSans-38"/>
       <use xlink:href="#DejaVuSans-30" transform="translate(63.623047 0)"/>
       <use xlink:href="#DejaVuSans-30" transform="translate(127.246094 0)"/>
      </g>
     </g>
    </g>
    <g id="text_6">
     <!-- Wavelength (nm) -->
     <g transform="translate(325.807813 366.676562) scale(0.1 -0.1)">
      <defs>
       <path id="DejaVuSans-57" d="M 213 4666 
L 850 4666 
L 1831 722 
L 2809 4666 
L 3519 4666 
L 4500 722 
L 5478 4666 
L 6119 4666 
L 4947 0 
L 4153 0 
L 3169 4050 
L 2175 0 
L 1381 0 
L 213 4666 
z
" transform="scale(0.015625)"/>
       <path id="DejaVuSans-61" d="M 2194 1759 
Q 1497 1759 1228 1600 
Q 959 1441 959 1056 
Q 959 750 1161 570 
Q 1363 391 1709 391 
Q 2188 391 2477 730 
Q 2766 1069 2766 1631 
L 2766 1759 
L 2194 1759 
z
M 3341 1997 
L 3341 0 
L 2766 0 
L 2766 531 
Q 2569 213 2275 61 
Q 1981 -91 1556 -91 
Q 1019 -91 701 211 
Q 384 513 384 1019 
Q 384 1609 779 1909 
Q 1175 2209 1959 2209 
L 2766 2209 
L 2766 2266 
Q 2766 2663 2505 2880 
Q 2244 3097 1772 3097 
Q 1472 3097 1187 3025 
Q 903 2953 641 2809 
L 641 3341 
Q 956 3463 1253 3523 
Q 1550 3584 1831 3584 
Q 2591 3584 2966 3190 
Q 3341 2797 3341 1997 
z
" transform="scale(0.015625)"/>
       <path id="DejaVuSans-76" d="M 191 3500 
L 800 3500 
L 1894 563 
L 2988 3500 
L 3597 3500 
L 2284 0 
L 1503 0 
L 191 3500 
z
" transform="scale(0.015625)"/>
       <path id="DejaVuSans-65" d="M 3597 1894 
L 3597 1613 
L 953 1613 
Q 991 1019 1311 708 
Q 1631 397 2203 397 
Q 2534 397 2845 478 
Q 3156 559 3463 722 
L 3463 178 
Q 3153 47 2828 -22 
Q 2503 -91 2169 -91 
Q 1331 -91 842 396 
Q 353 884 353 1716 
Q 353 2575 817 3079 
Q 1281 3584 2069 3584 
Q 2775 3584 3186 3129 
Q 3597 2675 3597 1894 
z
M 3022 2063 
Q 3016 2534 2758 2815 
Q 2500 3097 2075 3097 
Q 1594 3097 1305 2825 
Q 1016 2553 972 2059 
L 3022 2063 
z
" transform="scale(0.015625)"/>
       <path id="DejaVuSans-6c" d="M 603 4863 
L 1178 4863 
L 1178 0 
L 603 0 
L 603 4863 
z
" transform="scale(0.015625)"/>
       <path id="DejaVuSans-6e" d="M 3513 2113 
L 3513 0 
L 2938 0 
L 2938 2094 
Q 2938 2591 2744 2837 
Q 2550 3084 2163 3084 
Q 1697 3084 1428 2787 
Q 1159 2491 1159 1978 
L 1159 0 
L 581 0 
L 581 3500 
L 1159 3500 
L 1159 2956 
Q 1366 3272 1645 3428 
Q 1925 3584 2291 3584 
Q 2894 3584 3203 3211 
Q 3513 2838 3513 2113 
z
" transform="scale(0.015625)"/>
       <path id="DejaVuSans-67" d="M 2906 1791 
Q 2906 2416 2648 2759 
Q 2391 3103 1925 3103 
Q 1463 3103 1205 2759 
Q 947 2416 947 1791 
Q 947 1169 1205 825 
Q 1463 481 1925 481 
Q 2391 481 2648 825 
Q 2906 1169 2906 1791 
z
M 3481 434 
Q 3481 -459 3084 -895 
Q 2688 -1331 1869 -1331 
Q 1566 -1331 1297 -1286 
Q 1028 -1241 775 -1147 
L 775 -588 
Q 1028 -725 1275 -790 
Q 1522 -856 1778 -856 
Q 2344 -856 2625 -561 
Q 2906 -266 2906 331 
L 2906 616 
Q 2728 306 2450 153 
Q 2172 0 1784 0 
Q 1141 0 747 490 
Q 353 981 353 1791 
Q 353 2603 747 3093 
Q 1141 3584 1784 3584 
Q 2172 3584 2450 3431 
Q 2728 3278 2906 2969 
L 2906 3500 
L 3481 3500 
L 3481 434 
z
" transform="scale(0.015625)"/>
       <path id="DejaVuSans-74" d="M 1172 4494 
L 1172 3500 
L 2356 3500 
L 2356 3053 
L 1172 3053 
L 1172 1153 
Q 1172 725 1289 603 
Q 1406 481 1766 481 
L 2356 481 
L 2356 0 
L 1766 0 
Q 1100 0 847 248 
Q 594 497 594 1153 
L 594 3053 
L 172 3053 
L 172 3500 
L 594 3500 
L 594 4494 
L 1172 4494 
z
" transform="scale(0.015625)"/>
       <path id="DejaVuSans-68" d="M 3513 2113 
L 3513 0 
L 2938 0 
L 2938 2094 
Q 2938 2591 2744 2837 
Q 2550 3084 2163 3084 
Q 1697 3084 1428 2787 
Q 1159 2491 1159 1978 
L 1159 0 
L 581 0 
L 581 4863 
L 1159 4863 
L 1159 2956 
Q 1366 3272 1645 3428 
Q 1925 3584 2291 3584 
Q 2894 3584 3203 3211 
Q 3513 2838 3513 2113 
z
" transform="scale(0.015625)"/>
       <path id="DejaVuSans-20" transform="scale(0.015625)"/>
       <path id="DejaVuSans-28" d="M 1984 4856 
Q 1566 4138 1362 3434 
Q 1159 2731 1159 2009 
Q 1159 1288 1364 580 
Q 1569 -128 1984 -844 
L 1484 -844 
Q 1016 -109 783 600 
Q 550 1309 550 2009 
Q 550 2706 781 3412 
Q 1013 4119 1484 4856 
L 1984 4856 
z
" transform="scale(0.015625)"/>
       <path id="DejaVuSans-6d" d="M 3328 2828 
Q 3544 3216 3844 3400 
Q 4144 3584 4550 3584 
Q 5097 3584 5394 3201 
Q 5691 2819 5691 2113 
L 5691 0 
L 5113 0 
L 5113 2094 
Q 5113 2597 4934 2840 
Q 4756 3084 4391 3084 
Q 3944 3084 3684 2787 
Q 3425 2491 3425 1978 
L 3425 0 
L 2847 0 
L 2847 2094 
Q 2847 2600 2669 2842 
Q 2491 3084 2119 3084 
Q 1678 3084 1418 2786 
Q 1159 2488 1159 1978 
L 1159 0 
L 581 0 
L 581 3500 
L 1159 3500 
L 1159 2956 
Q 1356 3278 1631 3431 
Q 1906 3584 2284 3584 
Q 2666 3584 2933 3390 
Q 3200 3197 3328 2828 
z
" transform="scale(0.015625)"/>
       <path id="DejaVuSans-29" d="M 513 4856 
L 1013 4856 
Q 1481 4119 1714 3412 
Q 1947 2706 1947 2009 
Q 1947 1309 1714 600 
Q 1481 -109 1013 -844 
L 513 -844 
Q 928 -128 1133 580 
Q 1338 1288 1338 2009 
Q 1338 2731 1133 3434 
Q 928 4138 513 4856 
z
" transform="scale(0.015625)"/>
      </defs>
      <use xlink:href="#DejaVuSans-57"/>
      <use xlink:href="#DejaVuSans-61" transform="translate(92.501953 0)"/>
      <use xlink:href="#DejaVuSans-76" transform="translate(153.78125 0)"/>
      <use xlink:href="#DejaVuSans-65" transform="translate(212.960938 0)"/>
      <use xlink:href="#DejaVuSans-6c" transform="translate(274.484375 0)"/>
      <use xlink:href="#DejaVuSans-65" transform="translate(302.267578 0)"/>
      <use xlink:href="#DejaVuSans-6e" transform="translate(363.791016 0)"/>
      <use xlink:href="#DejaVuSans-67" transform="translate(427.169922 0)"/>
      <use xlink:href="#DejaVuSans-74" transform="translate(490.646484 0)"/>
      <use xlink:href="#DejaVuSans-68" transform="translate(529.855469 0)"/>
      <use xlink:href="#DejaVuSans-20" transform="translate(593.234375 0)"/>
      <use xlink:href="#DejaVuSans-28" transform="translate(625.021484 0)"/>
      <use xlink:href="#DejaVuSans-6e" transform="translate(664.035156 0)"/>
      <use xlink:href="#DejaVuSans-6d" transform="translate(727.414062 0)"/>
      <use xlink:href="#DejaVuSans-29" transform="translate(824.826172 0)"/>
     </g>
    </g>
   </g>
   <g id="matplotlib.axis_2">
    <g id="ytick_1">
     <g id="line2d_6">
      <defs>
       <path id="m2f0cf39d81" d="M 0 0 
L -3.5 0 
" style="stroke: #000000; stroke-width: 0.8"/>
      </defs>
      <g>
       <use xlink:href="#m2f0cf39d81" x="90" y="326.986" style="stroke: #000000; stroke-width: 0.8"/>
      </g>
     </g>
     <g id="text_7">
      <!-- 0 -->
      <g transform="translate(76.6375 330.785218) scale(0.1 -0.1)">
       <use xlink:href="#DejaVuSans-30"/>
      </g>
     </g>
    </g>
    <g id="ytick_2">
     <g id="line2d_7">
      <g>
       <use xlink:href="#m2f0cf39d81" x="90" y="297.534656" style="stroke: #000000; stroke-width: 0.8"/>
      </g>
     </g>
     <g id="text_8">
      <!-- 50000 -->
      <g transform="translate(51.1875 301.333875) scale(0.1 -0.1)">
       <use xlink:href="#DejaVuSans-35"/>
       <use xlink:href="#DejaVuSans-30" transform="translate(63.623047 0)"/>
       <use xlink:href="#DejaVuSans-30" transform="translate(127.246094 0)"/>
       <use xlink:href="#DejaVuSans-30" transform="translate(190.869141 0)"/>
       <use xlink:href="#DejaVuSans-30" transform="translate(254.492188 0)"/>
      </g>
     </g>
    </g>
    <g id="ytick_3">
     <g id="line2d_8">
      <g>
       <use xlink:href="#m2f0cf39d81" x="90" y="268.083312" style="stroke: #000000; stroke-width: 0.8"/>
      </g>
     </g>
     <g id="text_9">
      <!-- 100000 -->
      <g transform="translate(44.825 271.882531) scale(0.1 -0.1)">
       <defs>
        <path id="DejaVuSans-31" d="M 794 531 
L 1825 531 
L 1825 4091 
L 703 3866 
L 703 4441 
L 1819 4666 
L 2450 4666 
L 2450 531 
L 3481 531 
L 3481 0 
L 794 0 
L 794 531 
z
" transform="scale(0.015625)"/>
       </defs>
       <use xlink:href="#DejaVuSans-31"/>
       <use xlink:href="#DejaVuSans-30" transform="translate(63.623047 0)"/>
       <use xlink:href="#DejaVuSans-30" transform="translate(127.246094 0)"/>
       <use xlink:href="#DejaVuSans-30" transform="translate(190.869141 0)"/>
       <use xlink:href="#DejaVuSans-30" transform="translate(254.492188 0)"/>
       <use xlink:href="#DejaVuSans-30" transform="translate(318.115234 0)"/>
      </g>
     </g>
    </g>
    <g id="ytick_4">
     <g id="line2d_9">
      <g>
       <use xlink:href="#m2f0cf39d81" x="90" y="238.631968" style="stroke: #000000; stroke-width: 0.8"/>
      </g>
     </g>
     <g id="text_10">
      <!-- 150000 -->
      <g transform="translate(44.825 242.431187) scale(0.1 -0.1)">
       <use xlink:href="#DejaVuSans-31"/>
       <use xlink:href="#DejaVuSans-35" transform="translate(63.623047 0)"/>
       <use xlink:href="#DejaVuSans-30" transform="translate(127.246094 0)"/>
       <use xlink:href="#DejaVuSans-30" transform="translate(190.869141 0)"/>
       <use xlink:href="#DejaVuSans-30" transform="translate(254.492188 0)"/>
       <use xlink:href="#DejaVuSans-30" transform="translate(318.115234 0)"/>
      </g>
     </g>
    </g>
    <g id="ytick_5">
     <g id="line2d_10">
      <g>
       <use xlink:href="#m2f0cf39d81" x="90" y="209.180625" style="stroke: #000000; stroke-width: 0.8"/>
      </g>
     </g>
     <g id="text_11">
      <!-- 200000 -->
      <g transform="translate(44.825 212.979843) scale(0.1 -0.1)">
       <defs>
        <path id="DejaVuSans-32" d="M 1228 531 
L 3431 531 
L 3431 0 
L 469 0 
L 469 531 
Q 828 903 1448 1529 
Q 2069 2156 2228 2338 
Q 2531 2678 2651 2914 
Q 2772 3150 2772 3378 
Q 2772 3750 2511 3984 
Q 2250 4219 1831 4219 
Q 1534 4219 1204 4116 
Q 875 4013 500 3803 
L 500 4441 
Q 881 4594 1212 4672 
Q 1544 4750 1819 4750 
Q 2544 4750 2975 4387 
Q 3406 4025 3406 3419 
Q 3406 3131 3298 2873 
Q 3191 2616 2906 2266 
Q 2828 2175 2409 1742 
Q 1991 1309 1228 531 
z
" transform="scale(0.015625)"/>
       </defs>
       <use xlink:href="#DejaVuSans-32"/>
       <use xlink:href="#DejaVuSans-30" transform="translate(63.623047 0)"/>
       <use xlink:href="#DejaVuSans-30" transform="translate(127.246094 0)"/>
       <use xlink:href="#DejaVuSans-30" transform="translate(190.869141 0)"/>
       <use xlink:href="#DejaVuSans-30" transform="translate(254.492188 0)"/>
       <use xlink:href="#DejaVuSans-30" transform="translate(318.115234 0)"/>
      </g>
     </g>
    </g>
    <g id="ytick_6">
     <g id="line2d_11">
      <g>
       <use xlink:href="#m2f0cf39d81" x="90" y="179.729281" style="stroke: #000000; stroke-width: 0.8"/>
      </g>
     </g>
     <g id="text_12">
      <!-- 250000 -->
      <g transform="translate(44.825 183.5285) scale(0.1 -0.1)">
       <use xlink:href="#DejaVuSans-32"/>
       <use xlink:href="#DejaVuSans-35" transform="translate(63.623047 0)"/>
       <use xlink:href="#DejaVuSans-30" transform="translate(127.246094 0)"/>
       <use xlink:href="#DejaVuSans-30" transform="translate(190.869141 0)"/>
       <use xlink:href="#DejaVuSans-30" transform="translate(254.492188 0)"/>
       <use xlink:href="#DejaVuSans-30" transform="translate(318.115234 0)"/>
      </g>
     </g>
    </g>
    <g id="ytick_7">
     <g id="line2d_12">
      <g>
       <use xlink:href="#m2f0cf39d81" x="90" y="150.277937" style="stroke: #000000; stroke-width: 0.8"/>
      </g>
     </g>
     <g id="text_13">
      <!-- 300000 -->
      <g transform="translate(44.825 154.077156) scale(0.1 -0.1)">
       <defs>
        <path id="DejaVuSans-33" d="M 2597 2516 
Q 3050 2419 3304 2112 
Q 3559 1806 3559 1356 
Q 3559 666 3084 287 
Q 2609 -91 1734 -91 
Q 1441 -91 1130 -33 
Q 819 25 488 141 
L 488 750 
Q 750 597 1062 519 
Q 1375 441 1716 441 
Q 2309 441 2620 675 
Q 2931 909 2931 1356 
Q 2931 1769 2642 2001 
Q 2353 2234 1838 2234 
L 1294 2234 
L 1294 2753 
L 1863 2753 
Q 2328 2753 2575 2939 
Q 2822 3125 2822 3475 
Q 2822 3834 2567 4026 
Q 2313 4219 1838 4219 
Q 1578 4219 1281 4162 
Q 984 4106 628 3988 
L 628 4550 
Q 988 4650 1302 4700 
Q 1616 4750 1894 4750 
Q 2613 4750 3031 4423 
Q 3450 4097 3450 3541 
Q 3450 3153 3228 2886 
Q 3006 2619 2597 2516 
z
" transform="scale(0.015625)"/>
       </defs>
       <use xlink:href="#DejaVuSans-33"/>
       <use xlink:href="#DejaVuSans-30" transform="translate(63.623047 0)"/>
       <use xlink:href="#DejaVuSans-30" transform="translate(127.246094 0)"/>
       <use xlink:href="#DejaVuSans-30" transform="translate(190.869141 0)"/>
       <use xlink:href="#DejaVuSans-30" transform="translate(254.492188 0)"/>
       <use xlink:href="#DejaVuSans-30" transform="translate(318.115234 0)"/>
      </g>
     </g>
    </g>
    <g id="ytick_8">
     <g id="line2d_13">
      <g>
       <use xlink:href="#m2f0cf39d81" x="90" y="120.826594" style="stroke: #000000; stroke-width: 0.8"/>
      </g>
     </g>
     <g id="text_14">
      <!-- 350000 -->
      <g transform="translate(44.825 124.625812) scale(0.1 -0.1)">
       <use xlink:href="#DejaVuSans-33"/>
       <use xlink:href="#DejaVuSans-35" transform="translate(63.623047 0)"/>
       <use xlink:href="#DejaVuSans-30" transform="translate(127.246094 0)"/>
       <use xlink:href="#DejaVuSans-30" transform="translate(190.869141 0)"/>
       <use xlink:href="#DejaVuSans-30" transform="translate(254.492188 0)"/>
       <use xlink:href="#DejaVuSans-30" transform="translate(318.115234 0)"/>
      </g>
     </g>
    </g>
    <g id="ytick_9">
     <g id="line2d_14">
      <g>
       <use xlink:href="#m2f0cf39d81" x="90" y="91.37525" style="stroke: #000000; stroke-width: 0.8"/>
      </g>
     </g>
     <g id="text_15">
      <!-- 400000 -->
      <g transform="translate(44.825 95.174469) scale(0.1 -0.1)">
       <use xlink:href="#DejaVuSans-34"/>
       <use xlink:href="#DejaVuSans-30" transform="translate(63.623047 0)"/>
       <use xlink:href="#DejaVuSans-30" transform="translate(127.246094 0)"/>
       <use xlink:href="#DejaVuSans-30" transform="translate(190.869141 0)"/>
       <use xlink:href="#DejaVuSans-30" transform="translate(254.492188 0)"/>
       <use xlink:href="#DejaVuSans-30" transform="translate(318.115234 0)"/>
      </g>
     </g>
    </g>
    <g id="text_16">
     <!-- Absorption (a.u.) -->
     <g transform="translate(38.745312 254.367188) rotate(-90) scale(0.1 -0.1)">
      <defs>
       <path id="DejaVuSans-41" d="M 2188 4044 
L 1331 1722 
L 3047 1722 
L 2188 4044 
z
M 1831 4666 
L 2547 4666 
L 4325 0 
L 3669 0 
L 3244 1197 
L 1141 1197 
L 716 0 
L 50 0 
L 1831 4666 
z
" transform="scale(0.015625)"/>
       <path id="DejaVuSans-62" d="M 3116 1747 
Q 3116 2381 2855 2742 
Q 2594 3103 2138 3103 
Q 1681 3103 1420 2742 
Q 1159 2381 1159 1747 
Q 1159 1113 1420 752 
Q 1681 391 2138 391 
Q 2594 391 2855 752 
Q 3116 1113 3116 1747 
z
M 1159 2969 
Q 1341 3281 1617 3432 
Q 1894 3584 2278 3584 
Q 2916 3584 3314 3078 
Q 3713 2572 3713 1747 
Q 3713 922 3314 415 
Q 2916 -91 2278 -91 
Q 1894 -91 1617 61 
Q 1341 213 1159 525 
L 1159 0 
L 581 0 
L 581 4863 
L 1159 4863 
L 1159 2969 
z
" transform="scale(0.015625)"/>
       <path id="DejaVuSans-73" d="M 2834 3397 
L 2834 2853 
Q 2591 2978 2328 3040 
Q 2066 3103 1784 3103 
Q 1356 3103 1142 2972 
Q 928 2841 928 2578 
Q 928 2378 1081 2264 
Q 1234 2150 1697 2047 
L 1894 2003 
Q 2506 1872 2764 1633 
Q 3022 1394 3022 966 
Q 3022 478 2636 193 
Q 2250 -91 1575 -91 
Q 1294 -91 989 -36 
Q 684 19 347 128 
L 347 722 
Q 666 556 975 473 
Q 1284 391 1588 391 
Q 1994 391 2212 530 
Q 2431 669 2431 922 
Q 2431 1156 2273 1281 
Q 2116 1406 1581 1522 
L 1381 1569 
Q 847 1681 609 1914 
Q 372 2147 372 2553 
Q 372 3047 722 3315 
Q 1072 3584 1716 3584 
Q 2034 3584 2315 3537 
Q 2597 3491 2834 3397 
z
" transform="scale(0.015625)"/>
       <path id="DejaVuSans-6f" d="M 1959 3097 
Q 1497 3097 1228 2736 
Q 959 2375 959 1747 
Q 959 1119 1226 758 
Q 1494 397 1959 397 
Q 2419 397 2687 759 
Q 2956 1122 2956 1747 
Q 2956 2369 2687 2733 
Q 2419 3097 1959 3097 
z
M 1959 3584 
Q 2709 3584 3137 3096 
Q 3566 2609 3566 1747 
Q 3566 888 3137 398 
Q 2709 -91 1959 -91 
Q 1206 -91 779 398 
Q 353 888 353 1747 
Q 353 2609 779 3096 
Q 1206 3584 1959 3584 
z
" transform="scale(0.015625)"/>
       <path id="DejaVuSans-72" d="M 2631 2963 
Q 2534 3019 2420 3045 
Q 2306 3072 2169 3072 
Q 1681 3072 1420 2755 
Q 1159 2438 1159 1844 
L 1159 0 
L 581 0 
L 581 3500 
L 1159 3500 
L 1159 2956 
Q 1341 3275 1631 3429 
Q 1922 3584 2338 3584 
Q 2397 3584 2469 3576 
Q 2541 3569 2628 3553 
L 2631 2963 
z
" transform="scale(0.015625)"/>
       <path id="DejaVuSans-70" d="M 1159 525 
L 1159 -1331 
L 581 -1331 
L 581 3500 
L 1159 3500 
L 1159 2969 
Q 1341 3281 1617 3432 
Q 1894 3584 2278 3584 
Q 2916 3584 3314 3078 
Q 3713 2572 3713 1747 
Q 3713 922 3314 415 
Q 2916 -91 2278 -91 
Q 1894 -91 1617 61 
Q 1341 213 1159 525 
z
M 3116 1747 
Q 3116 2381 2855 2742 
Q 2594 3103 2138 3103 
Q 1681 3103 1420 2742 
Q 1159 2381 1159 1747 
Q 1159 1113 1420 752 
Q 1681 391 2138 391 
Q 2594 391 2855 752 
Q 3116 1113 3116 1747 
z
" transform="scale(0.015625)"/>
       <path id="DejaVuSans-69" d="M 603 3500 
L 1178 3500 
L 1178 0 
L 603 0 
L 603 3500 
z
M 603 4863 
L 1178 4863 
L 1178 4134 
L 603 4134 
L 603 4863 
z
" transform="scale(0.015625)"/>
       <path id="DejaVuSans-2e" d="M 684 794 
L 1344 794 
L 1344 0 
L 684 0 
L 684 794 
z
" transform="scale(0.015625)"/>
       <path id="DejaVuSans-75" d="M 544 1381 
L 544 3500 
L 1119 3500 
L 1119 1403 
Q 1119 906 1312 657 
Q 1506 409 1894 409 
Q 2359 409 2629 706 
Q 2900 1003 2900 1516 
L 2900 3500 
L 3475 3500 
L 3475 0 
L 2900 0 
L 2900 538 
Q 2691 219 2414 64 
Q 2138 -91 1772 -91 
Q 1169 -91 856 284 
Q 544 659 544 1381 
z
M 1991 3584 
L 1991 3584 
z
" transform="scale(0.015625)"/>
      </defs>
      <use xlink:href="#DejaVuSans-41"/>
      <use xlink:href="#DejaVuSans-62" transform="translate(68.408203 0)"/>
      <use xlink:href="#DejaVuSans-73" transform="translate(131.884766 0)"/>
      <use xlink:href="#DejaVuSans-6f" transform="translate(183.984375 0)"/>
      <use xlink:href="#DejaVuSans-72" transform="translate(245.166016 0)"/>
      <use xlink:href="#DejaVuSans-70" transform="translate(286.279297 0)"/>
      <use xlink:href="#DejaVuSans-74" transform="translate(349.755859 0)"/>
      <use xlink:href="#DejaVuSans-69" transform="translate(388.964844 0)"/>
      <use xlink:href="#DejaVuSans-6f" transform="translate(416.748047 0)"/>
      <use xlink:href="#DejaVuSans-6e" transform="translate(477.929688 0)"/>
      <use xlink:href="#DejaVuSans-20" transform="translate(541.308594 0)"/>
      <use xlink:href="#DejaVuSans-28" transform="translate(573.095703 0)"/>
      <use xlink:href="#DejaVuSans-61" transform="translate(612.109375 0)"/>
      <use xlink:href="#DejaVuSans-2e" transform="translate(673.388672 0)"/>
      <use xlink:href="#DejaVuSans-75" transform="translate(705.175781 0)"/>
      <use xlink:href="#DejaVuSans-2e" transform="translate(768.554688 0)"/>
      <use xlink:href="#DejaVuSans-29" transform="translate(800.341797 0)"/>
     </g>
    </g>
   </g>
   <g id="line2d_15">
    <path d="M 115.363636 318.649502 
L 122.127273 319.494756 
L 130.018182 320.02488 
L 133.4 320.120302 
L 137.909091 320.207478 
L 149.181818 320.264025 
L 161.581818 319.943005 
L 170.6 319.627287 
L 176.236364 319.701504 
L 184.127273 319.944183 
L 188.636364 319.93417 
L 192.018182 319.825789 
L 196.527273 319.385786 
L 199.909091 318.826799 
L 203.290909 317.983313 
L 207.8 316.440651 
L 212.309091 314.653544 
L 217.945455 312.232054 
L 220.2 311.087575 
L 222.454545 309.777579 
L 225.836364 307.449156 
L 229.218182 304.715483 
L 231.472727 302.523124 
L 233.727273 299.702864 
L 234.854545 297.921058 
L 235.981818 295.867121 
L 237.109091 293.480384 
L 238.236364 290.786175 
L 239.363636 287.790384 
L 241.618182 280.887578 
L 245 269.127657 
L 248.381818 256.891802 
L 252.890909 238.042942 
L 254.018182 232.7417 
L 258.527273 209.769652 
L 259.654545 204.46841 
L 260.781818 200.345222 
L 261.909091 196.81106 
L 263.036364 194.454953 
L 264.163636 192.687872 
L 265.290909 192.098845 
L 266.418182 192.687872 
L 267.545455 193.865926 
L 268.672727 195.633007 
L 269.8 198.578141 
L 270.927273 202.112302 
L 273.181818 210.358678 
L 274.309091 215.070893 
L 275.436364 220.372135 
L 278.818182 238.631968 
L 285.581818 277.031219 
L 287.836364 287.766823 
L 290.090909 296.824879 
L 291.218182 300.68595 
L 292.345455 304.105251 
L 293.472727 307.113411 
L 294.6 309.718677 
L 295.727273 311.965225 
L 296.854545 313.870727 
L 297.981818 315.487606 
L 299.109091 316.843546 
L 300.236364 318.009819 
L 302.490909 319.815775 
L 304.745455 321.139967 
L 308.127273 322.432527 
L 310.381818 323.027798 
L 313.763636 323.648279 
L 317.145455 324.043457 
L 322.781818 324.315352 
L 331.8 324.127806 
L 340.818182 323.772917 
L 346.454545 323.560219 
L 356.6 323.311002 
L 361.109091 323.206568 
L 364.490909 323.040403 
L 367.872727 322.729574 
L 374.636364 321.683698 
L 389.290909 319.311568 
L 391.545455 319.10482 
L 394.927273 319.061821 
L 399.436364 319.405813 
L 410.709091 320.896051 
L 415.218182 321.213006 
L 417.472727 321.179019 
L 419.727273 320.952597 
L 421.981818 320.476664 
L 424.236364 319.67382 
L 426.490909 318.534642 
L 433.254545 314.661201 
L 435.509091 313.82655 
L 437.763636 313.373589 
L 440.018182 313.245181 
L 442.272727 313.265208 
L 445.654545 313.545584 
L 452.418182 314.267142 
L 458.054545 314.71657 
L 460.309091 314.962783 
L 462.563636 315.392184 
L 465.945455 316.351119 
L 471.581818 318.468082 
L 478.345455 321.036828 
L 482.854545 322.486659 
L 487.363636 323.606752 
L 490.745455 324.269997 
L 495.254545 324.910622 
L 500.890909 325.268044 
L 505.4 325.288189 
L 509.909091 325.070484 
L 518.927273 324.588425 
L 525.690909 324.768431 
L 534.709091 325.383847 
L 545.981818 326.034545 
L 561.763636 326.428456 
L 600.090909 326.629827 
L 607.981818 326.633603 
L 622.636364 326.65122 
L 622.636364 326.65122 
" clip-path="url(#p91da5f7db1)" style="fill: none; stroke: #1f77b4; stroke-width: 1.5; stroke-linecap: square"/>
   </g>
   <g id="line2d_16">
    <path d="M 115.363636 316.572594 
L 118.745455 317.232893 
L 123.254545 317.880822 
L 128.890909 318.566449 
L 152.563636 320.501992 
L 155.945455 320.656906 
L 160.454545 320.959077 
L 168.345455 321.067458 
L 175.109091 320.86012 
L 180.745455 320.778834 
L 186.381818 320.63629 
L 195.4 319.890582 
L 210.054545 317.456723 
L 213.436364 316.644455 
L 215.690909 315.836899 
L 217.945455 314.731295 
L 220.2 313.171552 
L 222.454545 311.184765 
L 224.709091 308.870478 
L 231.472727 301.154815 
L 233.727273 299.103234 
L 235.981818 297.382098 
L 240.490909 294.209599 
L 241.618182 293.138748 
L 242.745455 291.816383 
L 243.872727 290.122931 
L 245 287.928806 
L 246.127273 285.247555 
L 247.254545 281.86713 
L 248.381818 277.79931 
L 249.509091 272.813198 
L 250.636364 266.905258 
L 252.890909 252.179587 
L 255.145455 232.7417 
L 257.4 208.591598 
L 259.654545 182.085389 
L 261.909091 154.401125 
L 264.163636 129.07297 
L 265.290909 118.470486 
L 266.418182 110.22411 
L 267.545455 103.744814 
L 268.672727 99.621626 
L 269.8 97.854545 
L 270.927273 99.032599 
L 272.054545 102.56676 
L 273.181818 108.457029 
L 274.309091 116.703405 
L 275.436364 126.716862 
L 277.690909 152.045018 
L 279.945455 180.318308 
L 283.327273 223.31727 
L 285.581818 248.645425 
L 286.709091 259.836936 
L 288.963636 278.59273 
L 290.090909 286.442691 
L 291.218182 293.235938 
L 292.345455 299.112659 
L 293.472727 304.064608 
L 294.6 308.187796 
L 295.727273 311.644206 
L 296.854545 314.410865 
L 297.981818 316.680974 
L 299.109091 318.504013 
L 300.236364 319.941238 
L 301.363636 321.092786 
L 302.490909 322.008958 
L 304.745455 323.248035 
L 307 323.977133 
L 309.254545 324.392514 
L 312.636364 324.722428 
L 317.145455 324.879345 
L 320.527273 324.821679 
L 323.909091 324.805481 
L 328.418182 324.703992 
L 339.690909 324.454774 
L 346.454545 324.157139 
L 363.363636 323.873346 
L 367.872727 323.873346 
L 380.272727 323.647219 
L 385.909091 323.231837 
L 390.418182 322.375804 
L 393.8 321.515177 
L 396.054545 320.781191 
L 399.436364 319.415237 
L 414.090909 312.560142 
L 416.345455 311.722546 
L 419.727273 310.737104 
L 421.981818 310.411961 
L 424.236364 310.335977 
L 426.490909 310.656408 
L 428.745455 311.300214 
L 433.254545 313.400095 
L 436.636364 315.072931 
L 438.890909 316.034812 
L 441.145455 316.745767 
L 443.4 317.248796 
L 445.654545 317.403121 
L 446.781818 317.405478 
L 449.036364 317.07091 
L 451.290909 316.422981 
L 453.545455 315.299117 
L 455.8 313.813003 
L 458.054545 311.875104 
L 460.309091 309.590269 
L 467.072727 302.36821 
L 469.327273 300.506296 
L 470.454545 299.853066 
L 471.581818 299.341201 
L 472.709091 299.122083 
L 473.836364 299.050222 
L 474.963636 299.276408 
L 476.090909 299.708165 
L 477.218182 300.44386 
L 478.345455 301.376289 
L 479.472727 302.511344 
L 481.727273 305.252675 
L 489.618182 315.81805 
L 491.872727 318.24543 
L 493 319.325705 
L 495.254545 321.08395 
L 497.509091 322.525829 
L 499.763636 323.543373 
L 502.018182 324.323245 
L 504.272727 324.863206 
L 506.527273 325.262389 
L 511.036364 325.746923 
L 513.290909 325.878452 
L 520.054545 326.076896 
L 548.236364 326.404536 
L 551.618182 326.448377 
L 558.381818 326.542981 
L 578.672727 326.734491 
L 591.072727 326.833713 
L 598.963636 326.845246 
L 609.109091 326.840634 
L 617 326.854476 
L 621.509091 326.845246 
L 622.636364 326.882166 
L 622.636364 326.882166 
" clip-path="url(#p91da5f7db1)" style="fill: none; stroke: #ff7f0e; stroke-width: 1.5; stroke-linecap: square"/>
   </g>
   <g id="line2d_17">
    <path d="M 115.363636 320.701672 
L 126.636364 322.465218 
L 130.018182 322.782822 
L 135.654545 323.085817 
L 142.418182 323.006946 
L 148.054545 322.751309 
L 154.818182 322.12965 
L 175.109091 319.889404 
L 178.490909 319.285651 
L 180.745455 318.726076 
L 183 317.922054 
L 185.254545 316.913051 
L 187.509091 315.677273 
L 190.890909 313.489038 
L 194.272727 310.988619 
L 197.654545 308.080593 
L 201.036364 305.163732 
L 202.163636 304.327314 
L 203.290909 303.661713 
L 204.418182 303.201683 
L 205.545455 302.917183 
L 206.672727 302.855336 
L 207.8 302.958415 
L 210.054545 303.542141 
L 212.309091 304.102895 
L 213.436364 304.150017 
L 214.563636 303.99687 
L 215.690909 303.489129 
L 216.818182 302.58615 
L 217.945455 301.190157 
L 219.072727 299.325298 
L 220.2 296.879069 
L 221.327273 293.812595 
L 222.454545 290.005714 
L 223.581818 285.47492 
L 224.709091 279.987545 
L 225.836364 273.606617 
L 226.963636 266.316232 
L 229.218182 248.056398 
L 231.472727 227.440458 
L 233.727273 206.23549 
L 234.854545 196.81106 
L 235.981818 189.153711 
L 237.109091 183.263442 
L 238.236364 180.318308 
L 239.363636 179.729281 
L 240.490909 182.085389 
L 241.618182 187.38663 
L 242.745455 195.04398 
L 245 215.65992 
L 249.509091 262.193043 
L 250.636364 272.678311 
L 251.763636 281.762872 
L 252.890909 289.691763 
L 254.018182 296.451435 
L 255.145455 302.15675 
L 256.272727 306.836568 
L 257.4 310.701763 
L 258.527273 313.824783 
L 259.654545 316.33286 
L 260.781818 318.310812 
L 261.909091 319.863487 
L 263.036364 321.1081 
L 264.163636 322.065446 
L 265.290909 322.799727 
L 266.418182 323.389873 
L 268.672727 324.221049 
L 270.927273 324.727847 
L 274.309091 325.17162 
L 278.818182 325.495997 
L 284.454545 325.756112 
L 293.472727 326.005034 
L 303.618182 326.088382 
L 309.254545 326.004033 
L 320.527273 325.494878 
L 328.418182 325.453175 
L 332.927273 325.492581 
L 348.709091 325.557904 
L 353.218182 325.455413 
L 356.6 325.215562 
L 358.854545 324.923817 
L 362.236364 324.242489 
L 365.618182 323.206332 
L 372.381818 321.035061 
L 375.763636 320.259902 
L 380.272727 319.55248 
L 382.527273 319.339842 
L 384.781818 319.345732 
L 387.036364 319.596657 
L 391.545455 320.415405 
L 399.436364 321.897632 
L 401.690909 322.105971 
L 403.945455 322.109328 
L 406.2 321.902109 
L 408.454545 321.426823 
L 410.709091 320.667508 
L 412.963636 319.543645 
L 414.090909 318.800293 
L 415.218182 317.903794 
L 416.345455 316.803492 
L 417.472727 315.512934 
L 418.6 313.985587 
L 419.727273 312.21085 
L 420.854545 310.178118 
L 423.109091 305.250319 
L 425.363636 299.179219 
L 429.872727 285.866623 
L 431 283.118812 
L 432.127273 280.828087 
L 433.254545 278.984433 
L 434.381818 277.599041 
L 435.509091 276.58297 
L 436.636364 275.930917 
L 437.763636 275.651718 
L 438.890909 275.776592 
L 440.018182 276.424522 
L 441.145455 277.653232 
L 442.272727 279.509255 
L 443.4 282.004962 
L 444.527273 284.987205 
L 446.781818 292.050816 
L 450.163636 303.00377 
L 452.418182 309.288098 
L 453.545455 311.958746 
L 454.672727 314.284224 
L 455.8 316.342873 
L 456.927273 318.072845 
L 458.054545 319.581932 
L 459.181818 320.831258 
L 460.309091 321.876191 
L 461.436364 322.758083 
L 462.563636 323.489006 
L 464.818182 324.558914 
L 467.072727 325.285361 
L 469.327273 325.758409 
L 472.709091 326.19423 
L 476.090909 326.446528 
L 482.854545 326.688671 
L 511.036364 326.891396 
L 569.654545 326.881259 
L 586.563636 326.906033 
L 613.618182 326.942076 
L 622.636364 326.945455 
L 622.636364 326.945455 
" clip-path="url(#p91da5f7db1)" style="fill: none; stroke: #2ca02c; stroke-width: 1.5; stroke-linecap: square"/>
   </g>
   <g id="patch_3">
    <path d="M 90 338.4 
L 90 86.4 
" style="fill: none; stroke: #000000; stroke-width: 0.8; stroke-linejoin: miter; stroke-linecap: square"/>
   </g>
   <g id="patch_4">
    <path d="M 648 338.4 
L 648 86.4 
" style="fill: none; stroke: #000000; stroke-width: 0.8; stroke-linejoin: miter; stroke-linecap: square"/>
   </g>
   <g id="patch_5">
    <path d="M 90 338.4 
L 648 338.4 
" style="fill: none; stroke: #000000; stroke-width: 0.8; stroke-linejoin: miter; stroke-linecap: square"/>
   </g>
   <g id="patch_6">
    <path d="M 90 86.4 
L 648 86.4 
" style="fill: none; stroke: #000000; stroke-width: 0.8; stroke-linejoin: miter; stroke-linecap: square"/>
   </g>
   <g id="text_17">
    <!-- Absorption -->
    <g transform="translate(336.52125 80.4) scale(0.12 -0.12)">
     <use xlink:href="#DejaVuSans-41"/>
     <use xlink:href="#DejaVuSans-62" transform="translate(68.408203 0)"/>
     <use xlink:href="#DejaVuSans-73" transform="translate(131.884766 0)"/>
     <use xlink:href="#DejaVuSans-6f" transform="translate(183.984375 0)"/>
     <use xlink:href="#DejaVuSans-72" transform="translate(245.166016 0)"/>
     <use xlink:href="#DejaVuSans-70" transform="translate(286.279297 0)"/>
     <use xlink:href="#DejaVuSans-74" transform="translate(349.755859 0)"/>
     <use xlink:href="#DejaVuSans-69" transform="translate(388.964844 0)"/>
     <use xlink:href="#DejaVuSans-6f" transform="translate(416.748047 0)"/>
     <use xlink:href="#DejaVuSans-6e" transform="translate(477.929688 0)"/>
    </g>
   </g>
   <g id="legend_1">
    <g id="patch_7">
     <path d="M 588.403125 138.434375 
L 641 138.434375 
Q 643 138.434375 643 136.434375 
L 643 93.4 
Q 643 91.4 641 91.4 
L 588.403125 91.4 
Q 586.403125 91.4 586.403125 93.4 
L 586.403125 136.434375 
Q 586.403125 138.434375 588.403125 138.434375 
z
" style="fill: #ffffff; opacity: 0.8; stroke: #cccccc; stroke-linejoin: miter"/>
    </g>
    <g id="line2d_18">
     <path d="M 590.403125 99.498438 
L 600.403125 99.498438 
L 610.403125 99.498438 
" style="fill: none; stroke: #1f77b4; stroke-width: 1.5; stroke-linecap: square"/>
    </g>
    <g id="text_18">
     <!-- Q32 -->
     <g transform="translate(618.403125 102.998438) scale(0.1 -0.1)">
      <defs>
       <path id="DejaVuSans-51" d="M 2522 4238 
Q 1834 4238 1429 3725 
Q 1025 3213 1025 2328 
Q 1025 1447 1429 934 
Q 1834 422 2522 422 
Q 3209 422 3611 934 
Q 4013 1447 4013 2328 
Q 4013 3213 3611 3725 
Q 3209 4238 2522 4238 
z
M 3406 84 
L 4238 -825 
L 3475 -825 
L 2784 -78 
Q 2681 -84 2626 -87 
Q 2572 -91 2522 -91 
Q 1538 -91 948 567 
Q 359 1225 359 2328 
Q 359 3434 948 4092 
Q 1538 4750 2522 4750 
Q 3503 4750 4090 4092 
Q 4678 3434 4678 2328 
Q 4678 1516 4351 937 
Q 4025 359 3406 84 
z
" transform="scale(0.015625)"/>
      </defs>
      <use xlink:href="#DejaVuSans-51"/>
      <use xlink:href="#DejaVuSans-33" transform="translate(78.710938 0)"/>
      <use xlink:href="#DejaVuSans-32" transform="translate(142.333984 0)"/>
     </g>
    </g>
    <g id="line2d_19">
     <path d="M 590.403125 114.176563 
L 600.403125 114.176563 
L 610.403125 114.176563 
" style="fill: none; stroke: #ff7f0e; stroke-width: 1.5; stroke-linecap: square"/>
    </g>
    <g id="text_19">
     <!-- Q33 -->
     <g transform="translate(618.403125 117.676563) scale(0.1 -0.1)">
      <use xlink:href="#DejaVuSans-51"/>
      <use xlink:href="#DejaVuSans-33" transform="translate(78.710938 0)"/>
      <use xlink:href="#DejaVuSans-33" transform="translate(142.333984 0)"/>
     </g>
    </g>
    <g id="line2d_20">
     <path d="M 590.403125 128.854688 
L 600.403125 128.854688 
L 610.403125 128.854688 
" style="fill: none; stroke: #2ca02c; stroke-width: 1.5; stroke-linecap: square"/>
    </g>
    <g id="text_20">
     <!-- Q34 -->
     <g transform="translate(618.403125 132.354688) scale(0.1 -0.1)">
      <use xlink:href="#DejaVuSans-51"/>
      <use xlink:href="#DejaVuSans-33" transform="translate(78.710938 0)"/>
      <use xlink:href="#DejaVuSans-34" transform="translate(142.333984 0)"/>
     </g>
    </g>
   </g>
  </g>
  <g id="axes_2">
   <g id="patch_8">
    <path d="M 90 640.8 
L 648 640.8 
L 648 388.8 
L 90 388.8 
z
" style="fill: #ffffff"/>
   </g>
   <g id="matplotlib.axis_3">
    <g id="xtick_6">
     <g id="line2d_21">
      <g>
       <use xlink:href="#mc4bbb63cb5" x="95.599764" y="640.8" style="stroke: #000000; stroke-width: 0.8"/>
      </g>
     </g>
     <g id="text_21">
      <!-- 600 -->
      <g transform="translate(86.056014 655.398438) scale(0.1 -0.1)">
       <use xlink:href="#DejaVuSans-36"/>
       <use xlink:href="#DejaVuSans-30" transform="translate(63.623047 0)"/>
       <use xlink:href="#DejaVuSans-30" transform="translate(127.246094 0)"/>
      </g>
     </g>
    </g>
    <g id="xtick_7">
     <g id="line2d_22">
      <g>
       <use xlink:href="#mc4bbb63cb5" x="161.479339" y="640.8" style="stroke: #000000; stroke-width: 0.8"/>
      </g>
     </g>
     <g id="text_22">
      <!-- 650 -->
      <g transform="translate(151.935589 655.398438) scale(0.1 -0.1)">
       <use xlink:href="#DejaVuSans-36"/>
       <use xlink:href="#DejaVuSans-35" transform="translate(63.623047 0)"/>
       <use xlink:href="#DejaVuSans-30" transform="translate(127.246094 0)"/>
      </g>
     </g>
    </g>
    <g id="xtick_8">
     <g id="line2d_23">
      <g>
       <use xlink:href="#mc4bbb63cb5" x="227.358914" y="640.8" style="stroke: #000000; stroke-width: 0.8"/>
      </g>
     </g>
     <g id="text_23">
      <!-- 700 -->
      <g transform="translate(217.815164 655.398438) scale(0.1 -0.1)">
       <use xlink:href="#DejaVuSans-37"/>
       <use xlink:href="#DejaVuSans-30" transform="translate(63.623047 0)"/>
       <use xlink:href="#DejaVuSans-30" transform="translate(127.246094 0)"/>
      </g>
     </g>
    </g>
    <g id="xtick_9">
     <g id="line2d_24">
      <g>
       <use xlink:href="#mc4bbb63cb5" x="293.238489" y="640.8" style="stroke: #000000; stroke-width: 0.8"/>
      </g>
     </g>
     <g id="text_24">
      <!-- 750 -->
      <g transform="translate(283.694739 655.398438) scale(0.1 -0.1)">
       <use xlink:href="#DejaVuSans-37"/>
       <use xlink:href="#DejaVuSans-35" transform="translate(63.623047 0)"/>
       <use xlink:href="#DejaVuSans-30" transform="translate(127.246094 0)"/>
      </g>
     </g>
    </g>
    <g id="xtick_10">
     <g id="line2d_25">
      <g>
       <use xlink:href="#mc4bbb63cb5" x="359.118064" y="640.8" style="stroke: #000000; stroke-width: 0.8"/>
      </g>
     </g>
     <g id="text_25">
      <!-- 800 -->
      <g transform="translate(349.574314 655.398438) scale(0.1 -0.1)">
       <use xlink:href="#DejaVuSans-38"/>
       <use xlink:href="#DejaVuSans-30" transform="translate(63.623047 0)"/>
       <use xlink:href="#DejaVuSans-30" transform="translate(127.246094 0)"/>
      </g>
     </g>
    </g>
    <g id="xtick_11">
     <g id="line2d_26">
      <g>
       <use xlink:href="#mc4bbb63cb5" x="424.997639" y="640.8" style="stroke: #000000; stroke-width: 0.8"/>
      </g>
     </g>
     <g id="text_26">
      <!-- 850 -->
      <g transform="translate(415.453889 655.398438) scale(0.1 -0.1)">
       <use xlink:href="#DejaVuSans-38"/>
       <use xlink:href="#DejaVuSans-35" transform="translate(63.623047 0)"/>
       <use xlink:href="#DejaVuSans-30" transform="translate(127.246094 0)"/>
      </g>
     </g>
    </g>
    <g id="xtick_12">
     <g id="line2d_27">
      <g>
       <use xlink:href="#mc4bbb63cb5" x="490.877214" y="640.8" style="stroke: #000000; stroke-width: 0.8"/>
      </g>
     </g>
     <g id="text_27">
      <!-- 900 -->
      <g transform="translate(481.333464 655.398438) scale(0.1 -0.1)">
       <defs>
        <path id="DejaVuSans-39" d="M 703 97 
L 703 672 
Q 941 559 1184 500 
Q 1428 441 1663 441 
Q 2288 441 2617 861 
Q 2947 1281 2994 2138 
Q 2813 1869 2534 1725 
Q 2256 1581 1919 1581 
Q 1219 1581 811 2004 
Q 403 2428 403 3163 
Q 403 3881 828 4315 
Q 1253 4750 1959 4750 
Q 2769 4750 3195 4129 
Q 3622 3509 3622 2328 
Q 3622 1225 3098 567 
Q 2575 -91 1691 -91 
Q 1453 -91 1209 -44 
Q 966 3 703 97 
z
M 1959 2075 
Q 2384 2075 2632 2365 
Q 2881 2656 2881 3163 
Q 2881 3666 2632 3958 
Q 2384 4250 1959 4250 
Q 1534 4250 1286 3958 
Q 1038 3666 1038 3163 
Q 1038 2656 1286 2365 
Q 1534 2075 1959 2075 
z
" transform="scale(0.015625)"/>
       </defs>
       <use xlink:href="#DejaVuSans-39"/>
       <use xlink:href="#DejaVuSans-30" transform="translate(63.623047 0)"/>
       <use xlink:href="#DejaVuSans-30" transform="translate(127.246094 0)"/>
      </g>
     </g>
    </g>
    <g id="xtick_13">
     <g id="line2d_28">
      <g>
       <use xlink:href="#mc4bbb63cb5" x="556.756789" y="640.8" style="stroke: #000000; stroke-width: 0.8"/>
      </g>
     </g>
     <g id="text_28">
      <!-- 950 -->
      <g transform="translate(547.213039 655.398438) scale(0.1 -0.1)">
       <use xlink:href="#DejaVuSans-39"/>
       <use xlink:href="#DejaVuSans-35" transform="translate(63.623047 0)"/>
       <use xlink:href="#DejaVuSans-30" transform="translate(127.246094 0)"/>
      </g>
     </g>
    </g>
    <g id="xtick_14">
     <g id="line2d_29">
      <g>
       <use xlink:href="#mc4bbb63cb5" x="622.636364" y="640.8" style="stroke: #000000; stroke-width: 0.8"/>
      </g>
     </g>
     <g id="text_29">
      <!-- 1000 -->
      <g transform="translate(609.911364 655.398438) scale(0.1 -0.1)">
       <use xlink:href="#DejaVuSans-31"/>
       <use xlink:href="#DejaVuSans-30" transform="translate(63.623047 0)"/>
       <use xlink:href="#DejaVuSans-30" transform="translate(127.246094 0)"/>
       <use xlink:href="#DejaVuSans-30" transform="translate(190.869141 0)"/>
      </g>
     </g>
    </g>
    <g id="text_30">
     <!-- Wavelength (nm) -->
     <g transform="translate(325.807813 669.076563) scale(0.1 -0.1)">
      <use xlink:href="#DejaVuSans-57"/>
      <use xlink:href="#DejaVuSans-61" transform="translate(92.501953 0)"/>
      <use xlink:href="#DejaVuSans-76" transform="translate(153.78125 0)"/>
      <use xlink:href="#DejaVuSans-65" transform="translate(212.960938 0)"/>
      <use xlink:href="#DejaVuSans-6c" transform="translate(274.484375 0)"/>
      <use xlink:href="#DejaVuSans-65" transform="translate(302.267578 0)"/>
      <use xlink:href="#DejaVuSans-6e" transform="translate(363.791016 0)"/>
      <use xlink:href="#DejaVuSans-67" transform="translate(427.169922 0)"/>
      <use xlink:href="#DejaVuSans-74" transform="translate(490.646484 0)"/>
      <use xlink:href="#DejaVuSans-68" transform="translate(529.855469 0)"/>
      <use xlink:href="#DejaVuSans-20" transform="translate(593.234375 0)"/>
      <use xlink:href="#DejaVuSans-28" transform="translate(625.021484 0)"/>
      <use xlink:href="#DejaVuSans-6e" transform="translate(664.035156 0)"/>
      <use xlink:href="#DejaVuSans-6d" transform="translate(727.414062 0)"/>
      <use xlink:href="#DejaVuSans-29" transform="translate(824.826172 0)"/>
     </g>
    </g>
   </g>
   <g id="matplotlib.axis_4">
    <g id="ytick_10">
     <g id="line2d_30">
      <g>
       <use xlink:href="#m2f0cf39d81" x="90" y="629.35219" style="stroke: #000000; stroke-width: 0.8"/>
      </g>
     </g>
     <g id="text_31">
      <!-- 0.0 -->
      <g transform="translate(67.096875 633.151409) scale(0.1 -0.1)">
       <use xlink:href="#DejaVuSans-30"/>
       <use xlink:href="#DejaVuSans-2e" transform="translate(63.623047 0)"/>
       <use xlink:href="#DejaVuSans-30" transform="translate(95.410156 0)"/>
      </g>
     </g>
    </g>
    <g id="ytick_11">
     <g id="line2d_31">
      <g>
       <use xlink:href="#m2f0cf39d81" x="90" y="583.532661" style="stroke: #000000; stroke-width: 0.8"/>
      </g>
     </g>
     <g id="text_32">
      <!-- 0.2 -->
      <g transform="translate(67.096875 587.33188) scale(0.1 -0.1)">
       <use xlink:href="#DejaVuSans-30"/>
       <use xlink:href="#DejaVuSans-2e" transform="translate(63.623047 0)"/>
       <use xlink:href="#DejaVuSans-32" transform="translate(95.410156 0)"/>
      </g>
     </g>
    </g>
    <g id="ytick_12">
     <g id="line2d_32">
      <g>
       <use xlink:href="#m2f0cf39d81" x="90" y="537.713132" style="stroke: #000000; stroke-width: 0.8"/>
      </g>
     </g>
     <g id="text_33">
      <!-- 0.4 -->
      <g transform="translate(67.096875 541.512351) scale(0.1 -0.1)">
       <use xlink:href="#DejaVuSans-30"/>
       <use xlink:href="#DejaVuSans-2e" transform="translate(63.623047 0)"/>
       <use xlink:href="#DejaVuSans-34" transform="translate(95.410156 0)"/>
      </g>
     </g>
    </g>
    <g id="ytick_13">
     <g id="line2d_33">
      <g>
       <use xlink:href="#m2f0cf39d81" x="90" y="491.893603" style="stroke: #000000; stroke-width: 0.8"/>
      </g>
     </g>
     <g id="text_34">
      <!-- 0.6 -->
      <g transform="translate(67.096875 495.692822) scale(0.1 -0.1)">
       <use xlink:href="#DejaVuSans-30"/>
       <use xlink:href="#DejaVuSans-2e" transform="translate(63.623047 0)"/>
       <use xlink:href="#DejaVuSans-36" transform="translate(95.410156 0)"/>
      </g>
     </g>
    </g>
    <g id="ytick_14">
     <g id="line2d_34">
      <g>
       <use xlink:href="#m2f0cf39d81" x="90" y="446.074074" style="stroke: #000000; stroke-width: 0.8"/>
      </g>
     </g>
     <g id="text_35">
      <!-- 0.8 -->
      <g transform="translate(67.096875 449.873293) scale(0.1 -0.1)">
       <use xlink:href="#DejaVuSans-30"/>
       <use xlink:href="#DejaVuSans-2e" transform="translate(63.623047 0)"/>
       <use xlink:href="#DejaVuSans-38" transform="translate(95.410156 0)"/>
      </g>
     </g>
    </g>
    <g id="ytick_15">
     <g id="line2d_35">
      <g>
       <use xlink:href="#m2f0cf39d81" x="90" y="400.254545" style="stroke: #000000; stroke-width: 0.8"/>
      </g>
     </g>
     <g id="text_36">
      <!-- 1.0 -->
      <g transform="translate(67.096875 404.053764) scale(0.1 -0.1)">
       <use xlink:href="#DejaVuSans-31"/>
       <use xlink:href="#DejaVuSans-2e" transform="translate(63.623047 0)"/>
       <use xlink:href="#DejaVuSans-30" transform="translate(95.410156 0)"/>
      </g>
     </g>
    </g>
    <g id="text_37">
     <!-- Normalized emission -->
     <g transform="translate(61.017187 566.907031) rotate(-90) scale(0.1 -0.1)">
      <defs>
       <path id="DejaVuSans-4e" d="M 628 4666 
L 1478 4666 
L 3547 763 
L 3547 4666 
L 4159 4666 
L 4159 0 
L 3309 0 
L 1241 3903 
L 1241 0 
L 628 0 
L 628 4666 
z
" transform="scale(0.015625)"/>
       <path id="DejaVuSans-7a" d="M 353 3500 
L 3084 3500 
L 3084 2975 
L 922 459 
L 3084 459 
L 3084 0 
L 275 0 
L 275 525 
L 2438 3041 
L 353 3041 
L 353 3500 
z
" transform="scale(0.015625)"/>
       <path id="DejaVuSans-64" d="M 2906 2969 
L 2906 4863 
L 3481 4863 
L 3481 0 
L 2906 0 
L 2906 525 
Q 2725 213 2448 61 
Q 2172 -91 1784 -91 
Q 1150 -91 751 415 
Q 353 922 353 1747 
Q 353 2572 751 3078 
Q 1150 3584 1784 3584 
Q 2172 3584 2448 3432 
Q 2725 3281 2906 2969 
z
M 947 1747 
Q 947 1113 1208 752 
Q 1469 391 1925 391 
Q 2381 391 2643 752 
Q 2906 1113 2906 1747 
Q 2906 2381 2643 2742 
Q 2381 3103 1925 3103 
Q 1469 3103 1208 2742 
Q 947 2381 947 1747 
z
" transform="scale(0.015625)"/>
      </defs>
      <use xlink:href="#DejaVuSans-4e"/>
      <use xlink:href="#DejaVuSans-6f" transform="translate(74.804688 0)"/>
      <use xlink:href="#DejaVuSans-72" transform="translate(135.986328 0)"/>
      <use xlink:href="#DejaVuSans-6d" transform="translate(175.349609 0)"/>
      <use xlink:href="#DejaVuSans-61" transform="translate(272.761719 0)"/>
      <use xlink:href="#DejaVuSans-6c" transform="translate(334.041016 0)"/>
      <use xlink:href="#DejaVuSans-69" transform="translate(361.824219 0)"/>
      <use xlink:href="#DejaVuSans-7a" transform="translate(389.607422 0)"/>
      <use xlink:href="#DejaVuSans-65" transform="translate(442.097656 0)"/>
      <use xlink:href="#DejaVuSans-64" transform="translate(503.621094 0)"/>
      <use xlink:href="#DejaVuSans-20" transform="translate(567.097656 0)"/>
      <use xlink:href="#DejaVuSans-65" transform="translate(598.884766 0)"/>
      <use xlink:href="#DejaVuSans-6d" transform="translate(660.408203 0)"/>
      <use xlink:href="#DejaVuSans-69" transform="translate(757.820312 0)"/>
      <use xlink:href="#DejaVuSans-73" transform="translate(785.603516 0)"/>
      <use xlink:href="#DejaVuSans-73" transform="translate(837.703125 0)"/>
      <use xlink:href="#DejaVuSans-69" transform="translate(889.802734 0)"/>
      <use xlink:href="#DejaVuSans-6f" transform="translate(917.585938 0)"/>
      <use xlink:href="#DejaVuSans-6e" transform="translate(978.767578 0)"/>
     </g>
    </g>
   </g>
   <g id="line2d_36">
    <path d="M 115.363636 629.28895 
L 117.998819 628.88522 
L 119.316411 628.856446 
L 120.634002 628.600177 
L 121.951594 628.216393 
L 123.269185 628.233025 
L 124.586777 628.117606 
L 125.904368 627.809378 
L 128.539551 627.715264 
L 129.857143 627.833066 
L 131.174734 627.355558 
L 133.809917 627.447541 
L 135.127509 627.159726 
L 136.4451 627.202521 
L 137.762692 626.926504 
L 139.080283 626.939563 
L 140.397875 626.821577 
L 141.715466 626.994088 
L 144.350649 626.3462 
L 145.668241 626.490531 
L 146.985832 626.225236 
L 148.303424 626.12535 
L 149.621015 626.214927 
L 152.256198 625.803697 
L 153.57379 625.667613 
L 154.891381 625.255695 
L 156.208973 625.40415 
L 157.526564 625.060733 
L 158.844156 624.913423 
L 160.161747 624.500589 
L 164.114522 624.044227 
L 166.749705 623.43414 
L 168.067296 623.013516 
L 172.020071 622.345468 
L 175.972845 621.144538 
L 177.290437 620.503293 
L 178.608028 619.99378 
L 179.92562 619.864111 
L 181.243211 619.016221 
L 182.560803 618.614842 
L 183.878394 618.413923 
L 185.195986 617.767639 
L 187.831169 616.817571 
L 189.14876 616.54357 
L 190.466352 615.726837 
L 191.783943 615.24367 
L 193.101535 615.078719 
L 194.419126 614.187988 
L 195.736718 613.793253 
L 198.371901 612.792325 
L 201.007084 612.031263 
L 202.324675 611.349239 
L 203.642267 610.880505 
L 204.959858 610.559081 
L 207.595041 608.90156 
L 208.912633 607.766839 
L 210.230224 607.097874 
L 211.547816 605.908628 
L 212.865407 604.566116 
L 214.182999 602.989924 
L 215.50059 600.685202 
L 216.818182 599.514513 
L 218.135773 596.64621 
L 219.453365 594.279632 
L 223.406139 583.008027 
L 224.723731 578.549787 
L 228.676505 562.833689 
L 231.311688 549.667447 
L 233.946871 535.275533 
L 235.264463 526.826412 
L 236.582054 519.135604 
L 237.899646 510.242034 
L 239.217237 502.750541 
L 240.534829 493.639327 
L 241.85242 486.092851 
L 243.170012 477.121387 
L 244.487603 469.439743 
L 245.805195 462.805075 
L 247.122786 455.052411 
L 248.440378 449.217294 
L 249.757969 441.519613 
L 251.075561 437.657027 
L 252.393152 431.276658 
L 253.710744 426.121961 
L 255.028335 422.41287 
L 256.345927 419.088663 
L 257.663518 415.294806 
L 258.98111 410.637251 
L 260.298701 409.342849 
L 261.616293 406.233994 
L 264.251476 404.222517 
L 265.569067 403.319872 
L 266.886659 402.197293 
L 268.20425 402.666944 
L 269.521842 400.712741 
L 270.839433 400.254545 
L 272.157025 401.858229 
L 273.474616 403.69101 
L 274.792208 404.607401 
L 277.427391 405.981987 
L 278.744982 407.127475 
L 280.062574 411.251232 
L 281.380165 411.938525 
L 282.697757 414.458599 
L 284.015348 415.833185 
L 285.33294 418.353259 
L 286.650531 419.727845 
L 287.968123 422.477017 
L 289.285714 422.935212 
L 290.603306 423.622505 
L 291.920897 426.371677 
L 293.238489 427.05897 
L 294.55608 428.433556 
L 295.873672 429.120849 
L 297.191263 431.411825 
L 298.508855 435.535583 
L 299.826446 434.84829 
L 301.144038 435.306485 
L 302.461629 438.513852 
L 303.779221 438.284754 
L 305.096812 440.804829 
L 306.414404 441.263024 
L 307.731995 444.012196 
L 309.049587 444.241293 
L 310.367178 446.074074 
L 311.68477 446.53227 
L 313.002361 449.052344 
L 314.319953 447.597574 
L 315.637544 448.584985 
L 316.955136 450.527733 
L 319.590319 451.799225 
L 320.90791 453.38458 
L 322.225502 455.228816 
L 323.543093 454.443011 
L 324.860685 456.342231 
L 327.495868 455.581627 
L 328.813459 456.706496 
L 330.131051 456.908102 
L 331.448642 457.739726 
L 332.766234 460.708832 
L 334.083825 459.357156 
L 335.401417 460.802762 
L 338.0366 457.803874 
L 339.354191 458.154393 
L 340.671783 456.17499 
L 341.989374 456.73857 
L 343.306966 455.125722 
L 344.624557 452.68125 
L 345.942149 452.316985 
L 347.25974 449.217294 
L 348.577332 448.827828 
L 349.894923 444.671997 
L 351.212515 442.978965 
L 352.530106 442.976674 
L 355.165289 438.053366 
L 356.482881 436.364916 
L 357.800472 434.360312 
L 359.118064 431.246875 
L 360.435655 430.985703 
L 361.753247 427.38887 
L 363.070838 426.243382 
L 364.38843 422.486181 
L 365.706021 419.892796 
L 367.023613 418.392206 
L 368.341204 417.361267 
L 369.658796 416.089775 
L 370.976387 414.114953 
L 373.61157 411.056499 
L 374.929162 408.667011 
L 376.246753 411.471166 
L 377.564345 409.276411 
L 378.881936 404.366848 
L 380.199528 401.821573 
L 381.517119 402.907496 
L 382.834711 404.195025 
L 384.152302 403.555843 
L 385.469894 405.23971 
L 386.787485 404.117132 
L 388.105077 405.784963 
L 389.422668 408.502061 
L 390.74026 409.29932 
L 392.057851 407.862878 
L 393.375443 407.970554 
L 394.693034 411.331417 
L 396.010626 416.788522 
L 397.328217 419.038261 
L 398.645809 422.621348 
L 399.9634 419.102409 
L 401.280992 425.04062 
L 402.598583 433.656982 
L 403.916175 435.957122 
L 405.233766 438.539053 
L 406.551358 441.904497 
L 407.868949 444.245875 
L 409.186541 448.626222 
L 410.504132 450.12223 
L 411.821724 456.59882 
L 413.139315 460.571373 
L 414.456907 467.389319 
L 415.774498 471.742174 
L 417.09209 478.926677 
L 418.409681 478.754853 
L 419.727273 487.419326 
L 421.044864 489.293345 
L 422.362456 495.275085 
L 423.680047 495.139917 
L 424.997639 503.087314 
L 426.31523 505.788375 
L 427.632822 510.455094 
L 428.950413 516.558256 
L 430.268005 518.892761 
L 431.585596 524.45067 
L 432.903188 529.467908 
L 434.220779 531.978818 
L 435.538371 536.760086 
L 436.855962 538.521847 
L 439.491145 547.550585 
L 440.808737 550.819808 
L 442.126328 553.078711 
L 443.44392 558.396068 
L 444.761511 560.666425 
L 446.079103 560.187611 
L 447.396694 567.944857 
L 448.714286 569.525631 
L 450.031877 570.81316 
L 451.349469 573.844122 
L 452.66706 577.729618 
L 453.984652 578.013699 
L 455.302243 582.597943 
L 456.619835 582.714783 
L 457.937426 584.840809 
L 460.572609 590.348316 
L 461.890201 590.020706 
L 463.207792 591.13183 
L 464.525384 594.096353 
L 465.842975 596.74014 
L 467.160567 596.561444 
L 468.478158 598.955515 
L 469.79575 599.420583 
L 471.113341 600.034564 
L 472.430933 601.865055 
L 473.748524 603.070108 
L 475.066116 604.114793 
L 476.383707 603.720746 
L 477.701299 606.844492 
L 479.01889 606.677938 
L 480.336482 607.183556 
L 481.654073 609.621614 
L 482.971665 607.992271 
L 484.289256 609.066052 
L 485.606848 609.442001 
L 486.924439 610.293099 
L 488.242031 612.129087 
L 489.559622 612.668154 
L 490.877214 612.955442 
L 492.194805 612.272044 
L 493.512397 614.061068 
L 494.829988 613.72796 
L 496.14758 615.663835 
L 497.465171 615.272994 
L 498.782763 614.663365 
L 500.100354 615.159362 
L 504.053129 616.219168 
L 505.37072 615.872314 
L 506.688312 616.280566 
L 508.005903 617.514027 
L 509.323495 618.004067 
L 510.641086 617.890206 
L 511.958678 616.796723 
L 513.276269 617.226968 
L 514.593861 619.827685 
L 515.911452 618.29777 
L 517.229044 618.454244 
L 518.546635 617.953208 
L 519.864227 617.704178 
L 521.181818 618.603845 
L 522.49941 617.883562 
L 523.817001 618.253096 
L 525.134593 617.886769 
L 526.452184 617.848968 
L 527.769776 619.936506 
L 529.087367 620.738806 
L 530.404959 617.969703 
L 531.72255 619.347954 
L 533.040142 618.349088 
L 534.357733 619.100758 
L 535.675325 620.416007 
L 536.992916 619.597441 
L 538.310508 620.776607 
L 539.628099 619.991718 
L 540.945691 620.947972 
L 542.263282 620.914753 
L 543.580874 619.168342 
L 544.898465 621.336293 
L 546.216057 620.99929 
L 548.85124 621.104675 
L 550.168831 622.267116 
L 552.804014 622.030229 
L 554.121606 621.179819 
L 555.439197 621.546146 
L 556.756789 620.83686 
L 558.07438 622.508585 
L 559.391972 622.420841 
L 560.709563 622.759905 
L 562.027155 622.339969 
L 563.344746 623.574577 
L 564.662338 623.60161 
L 565.979929 623.105385 
L 567.297521 624.001844 
L 568.615112 623.024971 
L 569.932704 623.700351 
L 571.250295 624.506546 
L 572.567887 624.85317 
L 573.885478 622.555779 
L 575.20307 624.610098 
L 576.520661 624.60437 
L 577.838253 623.9267 
L 579.155844 624.649274 
L 580.473436 625.019037 
L 581.791027 624.804373 
L 583.108619 625.668529 
L 584.42621 625.344814 
L 585.743802 625.235764 
L 587.061393 625.665551 
L 588.378985 625.044925 
L 589.696576 626.405994 
L 591.014168 626.466705 
L 592.331759 625.874717 
L 593.649351 626.923297 
L 594.966942 626.234629 
L 596.284534 625.709537 
L 597.602125 627.065544 
L 598.919717 626.200036 
L 600.237308 627.513865 
L 601.5549 626.585607 
L 602.872491 627.206599 
L 604.190083 627.206209 
L 605.507674 628.091191 
L 606.825266 628.119736 
L 608.142857 627.99946 
L 609.460449 626.900845 
L 610.77804 627.528619 
L 612.095632 626.375753 
L 613.413223 628.751954 
L 614.730815 628.067181 
L 616.048406 628.427346 
L 617.365998 627.51698 
L 618.683589 627.709606 
L 620.001181 627.591735 
L 621.318772 628.550028 
L 622.636364 627.919482 
L 622.636364 627.919482 
" clip-path="url(#pc3d99a7c54)" style="fill: none; stroke: #1f77b4; stroke-width: 1.5; stroke-linecap: square"/>
   </g>
   <g id="line2d_37">
    <path d="M 148.303424 625.224996 
L 150.938607 623.766102 
L 152.256198 622.619698 
L 154.891381 620.044411 
L 157.526564 616.20084 
L 158.844156 613.94125 
L 160.161747 611.114414 
L 162.79693 604.758558 
L 164.114522 601.081541 
L 165.432113 596.614137 
L 168.067296 585.672433 
L 169.384888 579.232498 
L 170.702479 572.098398 
L 172.020071 563.894411 
L 174.655254 546.068323 
L 179.92562 501.724183 
L 183.878394 466.637879 
L 186.513577 444.474973 
L 187.831169 435.643259 
L 189.14876 425.730204 
L 191.783943 411.672772 
L 193.101535 406.456219 
L 194.419126 402.451592 
L 197.054309 400.254545 
L 198.371901 401.542074 
L 199.689492 404.474524 
L 202.324675 412.896153 
L 206.27745 435.849446 
L 208.912633 453.911505 
L 210.230224 463.554225 
L 211.547816 472.191206 
L 214.182999 492.276196 
L 218.135773 516.702587 
L 219.453365 523.809196 
L 220.770956 531.779503 
L 223.406139 543.403918 
L 226.041322 553.156604 
L 227.358914 556.920679 
L 228.676505 561.518668 
L 229.994097 564.222021 
L 231.311688 566.524452 
L 232.62928 570.020482 
L 235.264463 574.794877 
L 236.582054 576.627658 
L 239.217237 579.39974 
L 240.534829 580.492535 
L 241.85242 581.11339 
L 243.170012 582.068727 
L 244.487603 582.552123 
L 245.805195 582.499431 
L 247.122786 582.219932 
L 248.440378 582.444447 
L 249.757969 582.410083 
L 251.075561 581.580749 
L 252.393152 581.479946 
L 253.710744 580.242819 
L 256.345927 578.455857 
L 257.663518 577.017124 
L 258.98111 576.103024 
L 260.298701 574.352718 
L 261.616293 573.035407 
L 262.933884 571.954066 
L 264.251476 570.494714 
L 266.886659 566.84748 
L 268.20425 564.453409 
L 269.521842 563.278138 
L 270.839433 560.721409 
L 273.474616 558.2609 
L 274.792208 556.006579 
L 276.109799 554.212745 
L 277.427391 553.23908 
L 278.744982 552.574696 
L 280.062574 550.501363 
L 281.380165 549.86218 
L 282.697757 550.082114 
L 284.015348 549.243617 
L 285.33294 548.072928 
L 286.650531 548.437193 
L 289.285714 549.917164 
L 291.920897 550.563219 
L 293.238489 551.628523 
L 295.873672 554.375404 
L 297.191263 556.680126 
L 298.508855 557.766049 
L 299.826446 559.117725 
L 301.144038 562.606882 
L 302.461629 563.958558 
L 303.779221 566.132695 
L 305.096812 569.557705 
L 307.731995 573.681462 
L 309.049587 576.888829 
L 310.367178 579.179806 
L 311.68477 581.241685 
L 313.002361 583.761759 
L 314.319953 586.740028 
L 315.637544 589.260102 
L 316.955136 591.321981 
L 318.272727 593.154762 
L 319.590319 595.445739 
L 320.90791 596.820324 
L 322.225502 599.111301 
L 323.543093 601.17318 
L 324.860685 602.776863 
L 327.495868 606.602794 
L 330.131051 608.847951 
L 331.448642 611.093108 
L 334.083825 613.086257 
L 336.719008 615.262685 
L 338.0366 615.881249 
L 339.354191 616.843459 
L 340.671783 617.164195 
L 341.989374 617.599481 
L 343.306966 619.226074 
L 344.624557 619.294803 
L 345.942149 620.57775 
L 347.25974 620.783938 
L 348.577332 621.105133 
L 352.530106 622.380749 
L 355.165289 622.709046 
L 357.800472 623.576409 
L 359.118064 623.25132 
L 360.435655 623.960835 
L 363.070838 623.990389 
L 364.38843 624.550762 
L 365.706021 623.956253 
L 367.023613 624.816744 
L 368.341204 624.421092 
L 369.658796 624.548242 
L 370.976387 624.799562 
L 372.293979 624.754429 
L 374.929162 625.039885 
L 376.246753 625.383073 
L 378.881936 625.578723 
L 380.199528 625.456843 
L 381.517119 625.464861 
L 382.834711 626.004157 
L 384.152302 626.397059 
L 385.469894 625.852494 
L 386.787485 625.922827 
L 388.105077 625.624084 
L 389.422668 625.733364 
L 390.74026 625.589719 
L 392.057851 625.9297 
L 393.375443 625.688002 
L 394.693034 625.969563 
L 396.010626 625.947341 
L 397.328217 626.294195 
L 398.645809 626.420427 
L 402.598583 626.400725 
L 405.233766 627.160986 
L 406.551358 626.538871 
L 407.868949 626.33864 
L 409.186541 626.924213 
L 410.504132 626.773009 
L 411.821724 627.039678 
L 414.456907 627.081672 
L 415.774498 627.153311 
L 417.09209 627.095624 
L 418.409681 627.705894 
L 419.727273 627.752103 
L 421.044864 627.359155 
L 423.680047 627.280254 
L 424.997639 627.876022 
L 426.31523 627.771164 
L 427.632822 627.993114 
L 428.950413 627.900925 
L 430.268005 628.266932 
L 431.585596 627.761199 
L 435.538371 628.330735 
L 436.855962 628.098751 
L 438.173554 628.370209 
L 439.491145 628.219715 
L 440.808737 628.529684 
L 442.126328 627.919528 
L 443.44392 628.482375 
L 444.761511 628.061294 
L 446.079103 628.642514 
L 447.396694 628.55619 
L 448.714286 628.726158 
L 450.031877 628.297195 
L 453.984652 628.970674 
L 455.302243 628.711312 
L 456.619835 628.680407 
L 457.937426 629.069071 
L 460.572609 629.199778 
L 461.890201 628.894842 
L 463.207792 628.979517 
L 464.525384 628.839836 
L 465.842975 628.883067 
L 467.160567 628.67933 
L 468.478158 629.057181 
L 469.79575 629.068567 
L 472.430933 629.336497 
L 473.748524 629.307981 
L 475.066116 629.034638 
L 476.383707 628.991178 
L 477.701299 629.295005 
L 480.336482 629.08859 
L 481.654073 628.858233 
L 482.971665 629.169519 
L 484.289256 629.254409 
L 485.606848 628.932483 
L 486.924439 629.249185 
L 488.242031 628.986779 
L 489.559622 629.114432 
L 490.877214 629.067834 
L 490.877214 629.067834 
" clip-path="url(#pc3d99a7c54)" style="fill: none; stroke: #ff7f0e; stroke-width: 1.5; stroke-linecap: square"/>
   </g>
   <g id="line2d_38">
    <path d="M 206.27745 629.098441 
L 207.595041 629.135393 
L 210.230224 628.98387 
L 212.865407 628.875507 
L 214.182999 628.659147 
L 219.453365 628.196415 
L 231.311688 627.143185 
L 232.62928 627.101306 
L 235.264463 626.890536 
L 239.217237 626.876103 
L 240.534829 626.747579 
L 243.170012 626.886641 
L 247.122786 627.028224 
L 251.075561 627.484815 
L 252.393152 627.414986 
L 255.028335 627.723031 
L 257.663518 627.656547 
L 258.98111 627.754119 
L 260.298701 627.603373 
L 261.616293 627.635538 
L 264.251476 627.326784 
L 266.886659 627.059381 
L 269.521842 626.472433 
L 270.839433 626.218134 
L 273.474616 625.32305 
L 276.109799 624.374127 
L 278.744982 622.643524 
L 280.062574 622.04535 
L 281.380165 621.152556 
L 282.697757 619.882439 
L 284.015348 618.84119 
L 286.650531 616.087207 
L 287.968123 614.371266 
L 289.285714 612.407212 
L 291.920897 608.767538 
L 293.238489 605.8903 
L 294.55608 603.633688 
L 297.191263 597.830645 
L 301.144038 587.441067 
L 305.096812 572.428298 
L 309.049587 553.791205 
L 310.367178 547.429163 
L 313.002361 532.668402 
L 314.319953 523.745049 
L 316.955136 509.229422 
L 318.272727 500.390835 
L 320.90791 484.977145 
L 323.543093 467.01589 
L 328.813459 436.035016 
L 331.448642 424.839014 
L 332.766234 417.911101 
L 334.083825 413.810253 
L 335.401417 409.260374 
L 336.719008 405.624594 
L 339.354191 402.316424 
L 340.671783 402.316424 
L 341.989374 400.254545 
L 343.306966 401.400034 
L 344.624557 403.232815 
L 345.942149 403.920108 
L 348.577332 410.793037 
L 351.212515 418.811455 
L 352.530106 424.309798 
L 353.847698 429.120849 
L 355.165289 432.328216 
L 356.482881 438.74295 
L 359.118064 449.739637 
L 360.435655 456.154371 
L 361.753247 460.049031 
L 363.070838 465.089179 
L 364.38843 472.191206 
L 365.706021 477.517726 
L 367.023613 481.918692 
L 368.341204 488.447975 
L 370.976387 498.475579 
L 372.293979 504.88344 
L 373.61157 508.459654 
L 374.929162 514.08171 
L 376.246753 518.336053 
L 377.564345 523.674029 
L 378.881936 526.537749 
L 381.517119 535.719983 
L 382.834711 539.02128 
L 384.152302 541.901037 
L 385.469894 546.043123 
L 389.422668 553.603345 
L 390.74026 557.174977 
L 393.375443 562.810779 
L 394.693034 566.160187 
L 396.010626 568.30225 
L 397.328217 570.687156 
L 398.645809 572.146508 
L 399.9634 574.639091 
L 401.280992 576.762826 
L 403.916175 580.33904 
L 405.233766 581.823593 
L 406.551358 584.25661 
L 407.868949 584.799571 
L 409.186541 586.128337 
L 410.504132 589.461708 
L 411.821724 589.221156 
L 413.139315 590.126091 
L 414.456907 591.890143 
L 415.774498 592.696567 
L 417.09209 593.958895 
L 418.409681 594.343779 
L 419.727273 596.456059 
L 421.044864 596.719522 
L 422.362456 598.692052 
L 423.680047 597.945194 
L 426.31523 599.981872 
L 427.632822 599.734447 
L 428.950413 600.719566 
L 431.585596 601.354167 
L 432.903188 602.327832 
L 434.220779 601.837563 
L 435.538371 602.451545 
L 436.855962 603.393136 
L 438.173554 603.771147 
L 439.491145 603.489357 
L 440.808737 604.080429 
L 442.126328 604.295781 
L 443.44392 604.921217 
L 444.761511 604.753976 
L 446.079103 605.024311 
L 447.396694 605.127405 
L 448.714286 604.637136 
L 450.031877 604.937254 
L 451.349469 605.794079 
L 452.66706 605.65433 
L 453.984652 606.082742 
L 455.302243 606.657548 
L 456.619835 606.21791 
L 457.937426 606.17209 
L 459.255018 606.961103 
L 460.572609 606.601648 
L 461.890201 607.198448 
L 463.207792 607.286421 
L 464.525384 607.965467 
L 465.842975 607.853667 
L 467.160567 607.581499 
L 468.478158 608.391359 
L 469.79575 608.242675 
L 472.430933 608.419309 
L 473.748524 609.727228 
L 475.066116 609.357464 
L 477.701299 610.878901 
L 479.01889 610.053463 
L 481.654073 611.924503 
L 482.971665 611.603766 
L 484.289256 611.685554 
L 485.606848 612.553834 
L 486.924439 613.115124 
L 488.242031 612.281895 
L 489.559622 613.89795 
L 490.877214 613.137575 
L 492.194805 613.92338 
L 493.512397 614.060151 
L 494.829988 614.480775 
L 496.14758 615.051457 
L 497.465171 615.066119 
L 500.100354 616.015271 
L 501.417946 616.15502 
L 504.053129 617.593983 
L 506.688312 618.014606 
L 508.005903 617.684247 
L 509.323495 618.062029 
L 510.641086 618.977274 
L 511.958678 619.047607 
L 514.593861 619.581405 
L 515.911452 619.732838 
L 517.229044 620.435481 
L 518.546635 620.964925 
L 521.181818 620.535138 
L 522.49941 620.960572 
L 523.817001 621.962187 
L 525.134593 621.309488 
L 526.452184 622.143404 
L 527.769776 622.459787 
L 529.087367 622.348217 
L 530.404959 622.720042 
L 531.72255 622.179601 
L 534.357733 623.035739 
L 535.675325 623.691645 
L 536.992916 623.640557 
L 540.945691 623.96725 
L 542.263282 624.629571 
L 543.580874 624.399786 
L 544.898465 624.85592 
L 546.216057 624.381458 
L 547.533648 625.25959 
L 548.85124 624.724876 
L 551.486423 625.478378 
L 552.804014 625.182842 
L 554.121606 625.298307 
L 558.07438 626.167504 
L 559.391972 625.98056 
L 560.709563 626.041042 
L 562.027155 626.845404 
L 563.344746 626.631655 
L 564.662338 627.027765 
L 567.297521 626.13291 
L 568.615112 626.123746 
L 569.932704 627.265798 
L 571.250295 627.01654 
L 573.885478 627.213243 
L 575.20307 626.706341 
L 576.520661 626.866481 
L 577.838253 627.789423 
L 579.155844 627.114777 
L 580.473436 627.578058 
L 581.791027 627.705345 
L 583.108619 627.504059 
L 584.42621 627.729927 
L 585.743802 627.529352 
L 587.061393 627.867065 
L 588.378985 628.351148 
L 589.696576 627.969677 
L 591.014168 627.852906 
L 592.331759 627.913823 
L 593.649351 627.491115 
L 594.966942 627.973755 
L 596.284534 627.888966 
L 597.602125 628.440061 
L 601.5549 628.548126 
L 602.872491 628.400243 
L 604.190083 628.591632 
L 605.507674 628.357815 
L 606.825266 628.547668 
L 608.142857 627.928829 
L 609.460449 628.434768 
L 610.77804 628.708471 
L 612.095632 628.801279 
L 613.413223 629.345455 
L 614.730815 628.990262 
L 616.048406 629.279598 
L 617.365998 628.954339 
L 618.683589 629.192935 
L 620.001181 628.333393 
L 621.318772 629.319303 
L 622.636364 628.916194 
L 622.636364 628.916194 
" clip-path="url(#pc3d99a7c54)" style="fill: none; stroke: #2ca02c; stroke-width: 1.5; stroke-linecap: square"/>
   </g>
   <g id="patch_9">
    <path d="M 90 640.8 
L 90 388.8 
" style="fill: none; stroke: #000000; stroke-width: 0.8; stroke-linejoin: miter; stroke-linecap: square"/>
   </g>
   <g id="patch_10">
    <path d="M 648 640.8 
L 648 388.8 
" style="fill: none; stroke: #000000; stroke-width: 0.8; stroke-linejoin: miter; stroke-linecap: square"/>
   </g>
   <g id="patch_11">
    <path d="M 90 640.8 
L 648 640.8 
" style="fill: none; stroke: #000000; stroke-width: 0.8; stroke-linejoin: miter; stroke-linecap: square"/>
   </g>
   <g id="patch_12">
    <path d="M 90 388.8 
L 648 388.8 
" style="fill: none; stroke: #000000; stroke-width: 0.8; stroke-linejoin: miter; stroke-linecap: square"/>
   </g>
   <g id="text_38">
    <!-- Emission -->
    <g transform="translate(342.305625 382.8) scale(0.12 -0.12)">
     <defs>
      <path id="DejaVuSans-45" d="M 628 4666 
L 3578 4666 
L 3578 4134 
L 1259 4134 
L 1259 2753 
L 3481 2753 
L 3481 2222 
L 1259 2222 
L 1259 531 
L 3634 531 
L 3634 0 
L 628 0 
L 628 4666 
z
" transform="scale(0.015625)"/>
     </defs>
     <use xlink:href="#DejaVuSans-45"/>
     <use xlink:href="#DejaVuSans-6d" transform="translate(63.183594 0)"/>
     <use xlink:href="#DejaVuSans-69" transform="translate(160.595703 0)"/>
     <use xlink:href="#DejaVuSans-73" transform="translate(188.378906 0)"/>
     <use xlink:href="#DejaVuSans-73" transform="translate(240.478516 0)"/>
     <use xlink:href="#DejaVuSans-69" transform="translate(292.578125 0)"/>
     <use xlink:href="#DejaVuSans-6f" transform="translate(320.361328 0)"/>
     <use xlink:href="#DejaVuSans-6e" transform="translate(381.542969 0)"/>
    </g>
   </g>
   <g id="legend_2">
    <g id="patch_13">
     <path d="M 588.403125 440.834375 
L 641 440.834375 
Q 643 440.834375 643 438.834375 
L 643 395.8 
Q 643 393.8 641 393.8 
L 588.403125 393.8 
Q 586.403125 393.8 586.403125 395.8 
L 586.403125 438.834375 
Q 586.403125 440.834375 588.403125 440.834375 
z
" style="fill: #ffffff; opacity: 0.8; stroke: #cccccc; stroke-linejoin: miter"/>
    </g>
    <g id="line2d_39">
     <path d="M 590.403125 401.898438 
L 600.403125 401.898438 
L 610.403125 401.898438 
" style="fill: none; stroke: #1f77b4; stroke-width: 1.5; stroke-linecap: square"/>
    </g>
    <g id="text_39">
     <!-- Q32 -->
     <g transform="translate(618.403125 405.398438) scale(0.1 -0.1)">
      <use xlink:href="#DejaVuSans-51"/>
      <use xlink:href="#DejaVuSans-33" transform="translate(78.710938 0)"/>
      <use xlink:href="#DejaVuSans-32" transform="translate(142.333984 0)"/>
     </g>
    </g>
    <g id="line2d_40">
     <path d="M 590.403125 416.576563 
L 600.403125 416.576563 
L 610.403125 416.576563 
" style="fill: none; stroke: #ff7f0e; stroke-width: 1.5; stroke-linecap: square"/>
    </g>
    <g id="text_40">
     <!-- Q33 -->
     <g transform="translate(618.403125 420.076563) scale(0.1 -0.1)">
      <use xlink:href="#DejaVuSans-51"/>
      <use xlink:href="#DejaVuSans-33" transform="translate(78.710938 0)"/>
      <use xlink:href="#DejaVuSans-33" transform="translate(142.333984 0)"/>
     </g>
    </g>
    <g id="line2d_41">
     <path d="M 590.403125 431.254687 
L 600.403125 431.254687 
L 610.403125 431.254687 
" style="fill: none; stroke: #2ca02c; stroke-width: 1.5; stroke-linecap: square"/>
    </g>
    <g id="text_41">
     <!-- Q34 -->
     <g transform="translate(618.403125 434.754687) scale(0.1 -0.1)">
      <use xlink:href="#DejaVuSans-51"/>
      <use xlink:href="#DejaVuSans-33" transform="translate(78.710938 0)"/>
      <use xlink:href="#DejaVuSans-34" transform="translate(142.333984 0)"/>
     </g>
    </g>
   </g>
  </g>
  <g id="text_42">
   <!-- 2x1 layout -->
   <g transform="translate(328.185938 23.518125) scale(0.12 -0.12)">
    <defs>
     <path id="DejaVuSans-78" d="M 3513 3500 
L 2247 1797 
L 3578 0 
L 2900 0 
L 1881 1375 
L 863 0 
L 184 0 
L 1544 1831 
L 300 3500 
L 978 3500 
L 1906 2253 
L 2834 3500 
L 3513 3500 
z
" transform="scale(0.015625)"/>
     <path id="DejaVuSans-79" d="M 2059 -325 
Q 1816 -950 1584 -1140 
Q 1353 -1331 966 -1331 
L 506 -1331 
L 506 -850 
L 844 -850 
Q 1081 -850 1212 -737 
Q 1344 -625 1503 -206 
L 1606 56 
L 191 3500 
L 800 3500 
L 1894 763 
L 2988 3500 
L 3597 3500 
L 2059 -325 
z
" transform="scale(0.015625)"/>
    </defs>
    <use xlink:href="#DejaVuSans-32"/>
    <use xlink:href="#DejaVuSans-78" transform="translate(63.623047 0)"/>
    <use xlink:href="#DejaVuSans-31" transform="translate(122.802734 0)"/>
    <use xlink:href="#DejaVuSans-20" transform="translate(186.425781 0)"/>
    <use xlink:href="#DejaVuSans-6c" transform="translate(218.212891 0)"/>
    <use xlink:href="#DejaVuSans-61" transform="translate(245.996094 0)"/>
    <use xlink:href="#DejaVuSans-79" transform="translate(307.275391 0)"/>
    <use xlink:href="#DejaVuSans-6f" transform="translate(366.455078 0)"/>
    <use xlink:href="#DejaVuSans-75" transform="translate(427.636719 0)"/>
    <use xlink:href="#DejaVuSans-74" transform="translate(491.015625 0)"/>
   </g>
  </g>
 </g>
 <defs>
  <clipPath id="p91da5f7db1">
   <rect x="90" y="86.4" width="558" height="252"/>
  </clipPath>
  <clipPath id="pc3d99a7c54">
   <rect x="90" y="388.8" width="558" height="252"/>
  </clipPath>
 </defs>
</svg>
